<svg width="46" height="40" viewBox="0 0 46 40" fill="none" xmlns="http://www.w3.org/2000/svg">
<g filter="url(#filter0_f_222_884)">
<ellipse cx="23" cy="20" rx="13" ry="10" fill="#00FF85" fill-opacity="0.2"/>
</g>
<path d="M31 23C31 21.8954 30.1046 21 29 21C27.8954 21 27 21.8954 27 23C27 24.1046 27.8954 25 29 25C30.1046 25 31 24.1046 31 23ZM23 23C23 21.8954 22.1046 21 21 21C19.8954 21 19 21.8954 19 23C19 24.1046 19.8954 25 21 25C22.1046 25 23 24.1046 23 23ZM34.6934 3C34.5857 3 34.4488 2.99955 34.3281 3.00879C34.1949 3.019 34.0093 3.04495 33.8105 3.13574C33.5815 3.24043 33.3826 3.4008 33.2324 3.60156L33.1709 3.68945L33.0947 3.82617C33.0288 3.96078 32.9934 4.08658 32.9717 4.18457C32.9454 4.3029 32.9273 4.43922 32.9121 4.5459L32.5615 7H16.9668C16.8189 7 16.6433 6.99953 16.4922 7.0127C16.3522 7.0249 16.1504 7.05325 15.9395 7.15527L15.8486 7.2041L15.7373 7.27637C15.4853 7.45488 15.293 7.70775 15.1895 8.00098C15.096 8.26583 15.1059 8.50835 15.1221 8.66797C15.1374 8.81882 15.1706 8.99145 15.1982 9.13672L16.5225 16.0859C16.6078 16.5342 16.6817 16.924 16.7676 17.2432C16.8567 17.5744 16.9747 17.8977 17.1836 18.2012C17.4992 18.6596 17.9369 19.0218 18.4463 19.2461C18.7834 19.3945 19.1228 19.45 19.4648 19.4756C19.7945 19.5002 20.192 19.5 20.6484 19.5H29.2061C29.6858 19.5 30.102 19.5011 30.4463 19.4746C30.8031 19.4472 31.1569 19.3859 31.5059 19.2256C32.0313 18.9842 32.4761 18.5965 32.7861 18.1084C32.992 17.7843 33.0996 17.4416 33.1748 17.0918C33.2474 16.7541 33.3025 16.3416 33.3672 15.8662L34.4199 8.13477V8.13379L34.8672 5H36C36.5523 5 37 4.55228 37 4C37 3.44772 36.5523 3 36 3H34.6934ZM31.3857 15.5967C31.317 16.1022 31.2725 16.4257 31.2197 16.6709C31.1696 16.9039 31.1263 16.9911 31.0977 17.0361C30.9943 17.1988 30.846 17.3277 30.6709 17.4082C30.6224 17.4305 30.5305 17.4622 30.293 17.4805C30.0429 17.4997 29.7164 17.5 29.2061 17.5H20.6484C20.1625 17.5 19.8522 17.4992 19.6143 17.4814C19.3889 17.4646 19.2998 17.4361 19.252 17.415C19.0822 17.3403 18.9362 17.2201 18.8311 17.0674C18.8014 17.0243 18.7569 16.9419 18.6982 16.7236C18.6363 16.4933 18.5782 16.189 18.4873 15.7119L17.208 9H32.2832L31.3857 15.5967Z" fill="url(#paint0_linear_222_884)"/>
<defs>
<filter id="filter0_f_222_884" x="0" y="0" width="46" height="40" filterUnits="userSpaceOnUse" color-interpolation-filters="sRGB">
<feFlood flood-opacity="0" result="BackgroundImageFix"/>
<feBlend mode="normal" in="SourceGraphic" in2="BackgroundImageFix" result="shape"/>
<feGaussianBlur stdDeviation="5" result="effect1_foregroundBlur_222_884"/>
</filter>
<linearGradient id="paint0_linear_222_884" x1="26.0558" y1="3" x2="26.0558" y2="25" gradientUnits="userSpaceOnUse">
<stop stop-color="#93E9D1"/>
<stop offset="1" stop-color="#8DDC64"/>
</linearGradient>
</defs>
</svg>
