<svg width="36" height="30" viewBox="0 0 36 30" fill="none" xmlns="http://www.w3.org/2000/svg">
<path d="M25.3354 7.00548C25.2059 7.02262 25.0858 7.08269 24.9944 7.17612L17.8808 14.2958L11.0109 7.41995C10.9431 7.34869 10.8585 7.29573 10.7648 7.26589C10.6711 7.23605 10.5714 7.23029 10.475 7.24922C10.3693 7.26943 10.2712 7.31848 10.1916 7.3909C10.1119 7.46332 10.0538 7.55632 10.0235 7.65969C9.99331 7.76305 9.99217 7.87279 10.0202 7.97676C10.0483 8.08074 10.1045 8.17492 10.1826 8.24898L17.0525 15.1248L10.4263 21.7813C10.3583 21.8319 10.3021 21.8967 10.2615 21.9711C10.221 22.0456 10.1972 22.128 10.1916 22.2126C10.186 22.2972 10.1989 22.382 10.2293 22.4612C10.2598 22.5403 10.307 22.6119 10.3678 22.6709C10.4286 22.73 10.5015 22.7751 10.5814 22.8032C10.6614 22.8313 10.7465 22.8417 10.8308 22.8336C10.9151 22.8255 10.9967 22.7991 11.0699 22.7564C11.143 22.7136 11.2061 22.6555 11.2545 22.586L17.8808 15.9539L24.7507 22.8298C24.8607 22.9391 25.0095 23.0003 25.1645 23C25.3194 22.9997 25.468 22.9379 25.5776 22.8283C25.6871 22.7186 25.7488 22.5699 25.7491 22.4148C25.7494 22.2597 25.6882 22.1108 25.579 22.0008L18.7091 15.1248L25.8226 8.0051C25.911 7.91919 25.97 7.8075 25.9913 7.68602C26.0125 7.56455 25.9948 7.43949 25.9408 7.32865C25.8868 7.21782 25.7992 7.1269 25.6904 7.06887C25.5817 7.01084 25.4575 6.98864 25.3354 7.00548Z" fill="white"/>
</svg>
