<svg width="16" height="16" viewBox="0 0 16 16" fill="none" xmlns="http://www.w3.org/2000/svg">
<g clip-path="url(#clip0_225_1437)">
<path d="M8.00012 -0.25C7.93498 -0.25 7.8725 -0.224123 7.82644 -0.178061C7.78038 -0.132 7.7545 -0.0695266 7.7545 -0.00438557V4.82018L6.60752 3.75488C6.58394 3.73265 6.55619 3.7153 6.52588 3.70383C6.49556 3.69237 6.46328 3.68702 6.43089 3.68809C6.39849 3.68916 6.36663 3.69663 6.33714 3.71007C6.30765 3.72351 6.28111 3.74266 6.25905 3.76641C6.23699 3.79015 6.21985 3.81803 6.20862 3.84843C6.19738 3.87883 6.19228 3.91116 6.19359 3.94354C6.19491 3.97592 6.20262 4.00773 6.21628 4.03712C6.22995 4.06651 6.24929 4.0929 6.2732 4.11478L7.83296 5.56352C7.87839 5.60572 7.93811 5.62918 8.00012 5.62918C8.06213 5.62918 8.12184 5.60572 8.16727 5.56352L9.72703 4.11492C9.75094 4.09304 9.77029 4.06665 9.78395 4.03726C9.79761 4.00787 9.80532 3.97606 9.80664 3.94368C9.80796 3.9113 9.80285 3.87897 9.79161 3.84857C9.78038 3.81817 9.76324 3.79029 9.74118 3.76655C9.71912 3.7428 9.69258 3.72366 9.66309 3.71021C9.6336 3.69677 9.60174 3.6893 9.56935 3.68823C9.53695 3.68716 9.50467 3.69251 9.47435 3.70397C9.44404 3.71544 9.41629 3.73279 9.39271 3.75502L8.24573 4.82018V-0.00438557C8.24573 -0.0695266 8.21985 -0.132 8.17379 -0.178061C8.12773 -0.224123 8.06526 -0.25 8.00012 -0.25Z" fill="#B30038"/>
<path d="M0.842112 11.8451C0.776971 11.8451 0.714498 11.871 0.668437 11.9171C0.622375 11.9631 0.596498 12.0256 0.596498 12.0908V15.5044C0.59577 15.5363 0.60141 15.568 0.613088 15.5977C0.624767 15.6274 0.642249 15.6545 0.664513 15.6774C0.686776 15.7002 0.713376 15.7184 0.742755 15.7309C0.772135 15.7434 0.803705 15.7499 0.835621 15.75H15.1644C15.1963 15.7499 15.2279 15.7434 15.2573 15.7309C15.2866 15.7184 15.3132 15.7002 15.3355 15.6774C15.3578 15.6545 15.3752 15.6274 15.3869 15.5977C15.3986 15.568 15.4042 15.5363 15.4035 15.5044V12.0908C15.4035 12.0256 15.3776 11.9631 15.3316 11.9171C15.2855 11.871 15.223 11.8451 15.1579 11.8451C15.0928 11.8451 15.0303 11.871 14.9842 11.9171C14.9382 11.9631 14.9123 12.0256 14.9123 12.0908V15.2588H11.2737C11.8041 14.7944 12.2289 14.2217 12.5194 13.5794C12.8099 12.937 12.9594 12.2399 12.9579 11.5349C12.9579 8.80121 10.7339 6.57721 8.00022 6.57721C5.26653 6.57721 3.04232 8.80121 3.04232 11.5349C3.04077 12.2399 3.19027 12.937 3.48075 13.5793C3.77123 14.2217 4.19595 14.7943 4.72632 15.2588H1.08773V12.0908C1.08773 12.0585 1.08137 12.0266 1.06903 11.9968C1.05669 11.967 1.03859 11.9399 1.01579 11.9171C0.99298 11.8943 0.965904 11.8762 0.936104 11.8638C0.906305 11.8515 0.874366 11.8451 0.842112 11.8451ZM3.53355 11.5349C3.53364 10.7626 3.73402 10.0034 4.1151 9.33164C4.49619 8.65985 5.04497 8.09837 5.70785 7.702C6.37074 7.30564 7.12508 7.08794 7.89722 7.07017C8.66937 7.0524 9.43293 7.23515 10.1133 7.6006C10.7938 7.96604 11.3678 8.50168 11.7794 9.15522C12.191 9.80876 12.4261 10.5579 12.4617 11.3294C12.4973 12.1009 12.3323 12.8685 11.9827 13.5572C11.6331 14.2459 11.1109 14.8322 10.467 15.2588H5.53299C4.91715 14.8524 4.41199 14.2994 4.06297 13.6494C3.71395 12.9993 3.53202 12.2727 3.53355 11.5349Z" fill="#B30038"/>
<path d="M6.09128 10.522C6.09128 10.5871 6.11716 10.6496 6.16322 10.6957C6.20928 10.7417 6.27175 10.7676 6.33689 10.7676H8.6684C8.61797 11.0353 8.47516 11.2768 8.26489 11.4499C8.05461 11.623 7.79022 11.7169 7.51784 11.715H6.33689C6.28679 11.7152 6.23793 11.7306 6.19683 11.7593C6.15574 11.7879 6.12435 11.8284 6.10685 11.8754C6.08935 11.9223 6.08657 11.9735 6.09888 12.0221C6.1112 12.0707 6.13802 12.1143 6.17577 12.1473L8.393 14.0755C8.44224 14.1183 8.50645 14.1397 8.5715 14.1351C8.63654 14.1305 8.6971 14.1003 8.73984 14.051C8.78258 14.0018 8.80401 13.9376 8.79941 13.8725C8.79481 13.8075 8.76456 13.7469 8.71531 13.7042L6.99366 12.2062H7.51784C8.35426 12.2062 9.04858 11.5746 9.16728 10.7676H9.66279C9.72793 10.7676 9.7904 10.7417 9.83646 10.6957C9.88252 10.6496 9.9084 10.5871 9.9084 10.522C9.9084 10.4568 9.88252 10.3944 9.83646 10.3483C9.7904 10.3023 9.72793 10.2764 9.66279 10.2764H9.16703C9.11204 9.93015 8.94791 9.61053 8.69858 9.36409H9.66279C9.72793 9.36409 9.7904 9.33822 9.83646 9.29215C9.88252 9.24609 9.9084 9.18362 9.9084 9.11848C9.9084 9.05334 9.88252 8.99086 9.83646 8.9448C9.7904 8.89874 9.72793 8.87286 9.66279 8.87286H6.33689C6.27175 8.87286 6.20928 8.89874 6.16322 8.9448C6.11716 8.99086 6.09128 9.05334 6.09128 9.11848C6.09128 9.18362 6.11716 9.24609 6.16322 9.29215C6.20928 9.33822 6.27175 9.36409 6.33689 9.36409H7.51784C7.78499 9.36159 8.04492 9.4508 8.25423 9.61683C8.46355 9.78286 8.60958 10.0157 8.66794 10.2764H6.33689C6.27175 10.2764 6.20928 10.3023 6.16322 10.3483C6.11716 10.3944 6.09128 10.4568 6.09128 10.522Z" fill="#B30038"/>
</g>
<defs>
<clipPath id="clip0_225_1437">
<rect width="16" height="16" fill="white"/>
</clipPath>
</defs>
</svg>
