<svg width="16" height="16" viewBox="0 0 16 16" fill="none" xmlns="http://www.w3.org/2000/svg">
<g clip-path="url(#clip0_225_1382)">
<path d="M1.70822 16H13.209C13.4303 15.9991 13.6492 15.9546 13.8532 15.869C14.0572 15.7834 14.2423 15.6585 14.3979 15.5014C14.5534 15.3442 14.6764 15.158 14.7598 14.9533C14.8432 14.7487 14.8853 14.5296 14.8837 14.3086V6.43372C14.8837 6.35256 14.8515 6.27473 14.794 6.21735C14.7365 6.15996 14.6586 6.12772 14.5773 6.12772C14.496 6.12772 14.4181 6.15996 14.3606 6.21735C14.3032 6.27473 14.2709 6.35256 14.2709 6.43372V14.3086C14.2725 14.4492 14.2463 14.5888 14.1938 14.7192C14.1412 14.8497 14.0634 14.9685 13.9647 15.0688C13.866 15.1691 13.7484 15.249 13.6188 15.3038C13.4891 15.3585 13.3498 15.3872 13.209 15.388H1.70822C1.11628 15.388 0.61286 14.9042 0.61286 14.3086V2.75645C0.616487 2.4674 0.733029 2.19119 0.937644 1.98671C1.14226 1.78223 1.41876 1.66564 1.70822 1.6618H9.54806C9.62933 1.6618 9.70727 1.62956 9.76473 1.57218C9.8222 1.51479 9.85449 1.43696 9.85449 1.3558C9.85449 1.27465 9.8222 1.19682 9.76473 1.13943C9.70727 1.08204 9.62933 1.0498 9.54806 1.0498H1.70822C1.25628 1.05383 0.823999 1.23496 0.504493 1.55417C0.184987 1.87338 0.00381575 2.30514 0 2.75645V14.3086C0 15.2416 0.778376 16 1.70822 16Z" fill="#B30038"/>
<path d="M10.795 3.06064H12.9575V5.19769C12.9575 5.27885 12.9898 5.35668 13.0473 5.41407C13.1047 5.47145 13.1827 5.50369 13.2639 5.50369C13.3452 5.50369 13.4231 5.47145 13.4806 5.41407C13.5381 5.35668 13.5704 5.27885 13.5704 5.19769V3.06064H15.6935C15.7748 3.06064 15.8527 3.0284 15.9102 2.97102C15.9676 2.91363 15.9999 2.8358 15.9999 2.75464C15.9999 2.67349 15.9676 2.59566 15.9102 2.53827C15.8527 2.48088 15.7748 2.44864 15.6935 2.44864H13.5704V0.305999C13.5704 0.224843 13.5381 0.147011 13.4806 0.089625C13.4231 0.0322392 13.3452 0 13.2639 0C13.1827 0 13.1047 0.0322392 13.0473 0.089625C12.9898 0.147011 12.9575 0.224843 12.9575 0.305999V2.44864H10.795C10.7137 2.44864 10.6358 2.48088 10.5783 2.53827C10.5208 2.59566 10.4886 2.67349 10.4886 2.75464C10.4886 2.8358 10.5208 2.91363 10.5783 2.97102C10.6358 3.0284 10.7137 3.06064 10.795 3.06064Z" fill="#B30038"/>
<path d="M4.97023 4.89661C4.88896 4.89661 4.81102 4.92885 4.75355 4.98623C4.69609 5.04362 4.6638 5.12145 4.6638 5.20261C4.6638 5.28376 4.69609 5.36159 4.75355 5.41898C4.81102 5.47636 4.88896 5.5086 4.97023 5.5086H6.72564C7.14929 5.51036 7.55901 5.65984 7.88401 5.93122C8.20902 6.2026 8.42888 6.57882 8.5056 6.99488H4.97023C4.88896 6.99488 4.81102 7.02712 4.75355 7.08451C4.69609 7.14189 4.6638 7.21973 4.6638 7.30088C4.6638 7.38204 4.69609 7.45987 4.75355 7.51726C4.81102 7.57464 4.88896 7.60688 4.97023 7.60688H8.50617C8.36075 8.48116 7.61787 9.13687 6.72542 9.13687H4.97023C4.90858 9.13463 4.84776 9.15168 4.79628 9.18563C4.7448 9.21958 4.70522 9.26873 4.68307 9.32623C4.66092 9.38373 4.65731 9.4467 4.67274 9.50635C4.68817 9.566 4.72186 9.61935 4.76913 9.65895L8.06465 12.5181C8.12634 12.5709 8.20642 12.5971 8.28742 12.5911C8.36841 12.5851 8.44375 12.5474 8.49698 12.4861C8.52334 12.4567 8.54352 12.4223 8.5563 12.3849C8.56909 12.3476 8.57423 12.3081 8.57142 12.2687C8.5686 12.2293 8.55789 12.1909 8.53992 12.1557C8.52196 12.1206 8.49709 12.0894 8.46682 12.064L5.78958 9.74887H6.72542C7.95639 9.74887 8.97492 8.78716 9.12538 7.60688H9.91334C9.99461 7.60688 10.0726 7.57464 10.13 7.51726C10.1875 7.45987 10.2198 7.38204 10.2198 7.30088C10.2198 7.21973 10.1875 7.14189 10.13 7.08451C10.0726 7.02712 9.99461 6.99488 9.91334 6.99488H9.12503C9.04157 6.42267 8.76147 5.89724 8.33269 5.5086H9.91356C9.99483 5.5086 10.0728 5.47636 10.1302 5.41898C10.1877 5.36159 10.22 5.28376 10.22 5.20261C10.22 5.12145 10.1877 5.04362 10.1302 4.98623C10.0728 4.92885 9.99483 4.89661 9.91356 4.89661H4.97023Z" fill="#B30038"/>
</g>
<defs>
<clipPath id="clip0_225_1382">
<rect width="16" height="16" fill="white"/>
</clipPath>
</defs>
</svg>
