<svg width="16" height="16" viewBox="0 0 16 16" fill="none" xmlns="http://www.w3.org/2000/svg">
<path d="M8.00023 14.8523C8.7681 14.8523 9.51872 14.6426 10.1572 14.2497C10.7956 13.8568 11.2933 13.2983 11.5871 12.645C11.8809 11.9916 11.9578 11.2726 11.808 10.579C11.6582 9.88534 11.2885 9.2482 10.7455 8.74812C10.2025 8.24804 9.51076 7.90749 8.75765 7.76951C8.00454 7.63154 7.22392 7.70235 6.5145 7.973C5.80508 8.24364 5.19873 8.70195 4.77213 9.28998C4.34553 9.87801 4.11783 10.5693 4.11783 11.2766C4.11903 12.2246 4.52846 13.1334 5.25629 13.8038C5.98412 14.4741 6.97092 14.8512 8.00023 14.8523ZM8.00023 8.16275C8.66883 8.16275 9.32241 8.34535 9.87833 8.68746C10.4342 9.02957 10.8675 9.51583 11.1234 10.0847C11.3793 10.6537 11.4462 11.2797 11.3158 11.8836C11.1854 12.4876 10.8634 13.0424 10.3907 13.4778C9.91793 13.9132 9.31559 14.2098 8.65985 14.3299C8.0041 14.4501 7.3244 14.3885 6.70668 14.1528C6.08897 13.9172 5.56099 13.5182 5.18952 13.0062C4.81804 12.4942 4.61974 11.8922 4.61971 11.2764C4.62072 10.4509 4.9772 9.65954 5.61095 9.07582C6.2447 8.4921 7.10395 8.16373 8.00023 8.16275Z" fill="#B30038"/>
<path d="M8.00024 16C10.8282 16 13.1288 13.881 13.1288 11.2765C13.1288 8.67199 10.8282 6.55292 8.00024 6.55292C5.17233 6.55292 2.87167 8.67186 2.87167 11.2764C2.87167 13.8809 5.17233 16 8.00024 16ZM8.00024 7.01529C8.91531 7.0153 9.80983 7.26522 10.5707 7.73346C11.3315 8.2017 11.9245 8.86723 12.2747 9.64587C12.6249 10.4245 12.7165 11.2813 12.5379 12.1079C12.3594 12.9345 11.9187 13.6938 11.2717 14.2897C10.6246 14.8857 9.80021 15.2915 8.90272 15.4559C8.00523 15.6203 7.07496 15.5359 6.22956 15.2133C5.38415 14.8908 4.66158 14.3446 4.15321 13.6438C3.64485 12.9431 3.37353 12.1192 3.37355 11.2764C3.37494 10.1466 3.86284 9.0635 4.73021 8.26464C5.59758 7.46578 6.7736 7.01643 8.00024 7.01516V7.01529Z" fill="#B30038"/>
<path d="M10.8125 4.0202C10.7661 4.0264 10.7226 4.04442 10.6868 4.0722C10.651 4.09999 10.6244 4.13644 10.6099 4.17744C10.5955 4.21844 10.5937 4.26235 10.6049 4.30421C10.6161 4.34607 10.6398 4.38422 10.6733 4.41433L11.4291 5.09376L11.2507 6.0532C11.2428 6.09571 11.2479 6.13941 11.2656 6.17936C11.2833 6.21931 11.3127 6.25391 11.3506 6.27925C11.3885 6.30459 11.4333 6.31965 11.48 6.32274C11.5267 6.32583 11.5735 6.31683 11.6149 6.29674L12.5488 5.84394L13.4826 6.29674C13.524 6.31683 13.5707 6.32585 13.6175 6.32276C13.6642 6.31968 13.709 6.30461 13.7469 6.27927C13.7848 6.25393 13.8143 6.21933 13.8319 6.17938C13.8496 6.13942 13.8547 6.09572 13.8468 6.0532L13.6684 5.09376L14.4242 4.41429C14.4577 4.38418 14.4814 4.34604 14.4926 4.30418C14.5038 4.26232 14.502 4.21841 14.4876 4.17741C14.4731 4.13641 14.4464 4.09996 14.4106 4.07217C14.3749 4.04438 14.3313 4.02637 14.285 4.02017L13.2409 3.88031L12.7739 3.00753C12.7532 2.96882 12.7212 2.93622 12.6814 2.91342C12.6416 2.89062 12.5957 2.87854 12.5488 2.87854C12.502 2.87854 12.456 2.89062 12.4163 2.91342C12.3765 2.93622 12.3444 2.96882 12.3237 3.00753L11.8567 3.88031L10.8125 4.0202ZM12.2485 4.19367L12.5488 3.63238L12.849 4.19367C12.867 4.2273 12.8936 4.25639 12.9265 4.27844C12.9595 4.30049 12.9977 4.31483 13.038 4.32023L13.7101 4.4103L13.2235 4.84774C13.1944 4.87389 13.1727 4.90616 13.1601 4.94177C13.1476 4.97737 13.1446 5.01525 13.1515 5.05215L13.2662 5.66957L12.6656 5.3784C12.6296 5.36092 12.5895 5.35179 12.5487 5.35179C12.508 5.35179 12.4679 5.36092 12.4319 5.3784L11.8312 5.66964L11.9459 5.05222C11.9528 5.01532 11.9498 4.97744 11.9373 4.94183C11.9247 4.90622 11.903 4.87396 11.8739 4.84781L11.3873 4.41037L12.0594 4.32029C12.0997 4.3149 12.138 4.30056 12.1709 4.2785C12.2039 4.25644 12.2305 4.22733 12.2485 4.19367Z" fill="#B30038"/>
<path d="M2.33142 5.09373L2.15307 6.05317C2.14516 6.09569 2.15032 6.1394 2.16798 6.17935C2.18564 6.2193 2.21509 6.2539 2.25299 6.27924C2.29089 6.30458 2.33573 6.31965 2.38245 6.32274C2.42916 6.32582 2.47589 6.31681 2.51733 6.29671L3.45107 5.84391L4.38493 6.29671C4.42637 6.3168 4.47308 6.32581 4.51979 6.32272C4.5665 6.31962 4.61134 6.30456 4.64924 6.27922C4.68713 6.25388 4.71657 6.21928 4.73423 6.17933C4.75189 6.13939 4.75706 6.09568 4.74915 6.05317L4.57077 5.09373L5.32653 4.41427C5.36003 4.38415 5.38372 4.34601 5.39492 4.30415C5.40612 4.26229 5.40438 4.21838 5.3899 4.17738C5.37543 4.13638 5.34879 4.09993 5.313 4.07214C5.2772 4.04435 5.23369 4.02634 5.18736 4.02014L4.1432 3.88025L3.6762 3.00747C3.6555 2.96876 3.62344 2.93616 3.58365 2.91336C3.54387 2.89056 3.49795 2.87848 3.45109 2.87848C3.40424 2.87848 3.35832 2.89056 3.31853 2.91336C3.27875 2.93616 3.24669 2.96876 3.22598 3.00747L2.75891 3.88028L1.71475 4.02017C1.66844 4.02639 1.62494 4.04441 1.58916 4.0722C1.55339 4.09999 1.52676 4.13644 1.51229 4.17743C1.49782 4.21842 1.49609 4.26232 1.50729 4.30417C1.51848 4.34602 1.54217 4.38416 1.57566 4.41427L2.33142 5.09373ZM2.96185 4.3202C3.00213 4.3148 3.04037 4.30046 3.07329 4.27841C3.10621 4.25636 3.13282 4.22727 3.15081 4.19365L3.45107 3.63235L3.75134 4.19365C3.76934 4.22728 3.79594 4.25637 3.82887 4.27842C3.86179 4.30047 3.90005 4.31481 3.94033 4.3202L4.6125 4.41027L4.12589 4.84772C4.0968 4.87387 4.07505 4.90613 4.06249 4.94174C4.04994 4.97734 4.04697 5.01523 4.05383 5.05213L4.16855 5.66955L3.56798 5.37837C3.53194 5.3609 3.49182 5.35177 3.45109 5.35177C3.41036 5.35177 3.37025 5.3609 3.33421 5.37837L2.73356 5.66961L2.84828 5.05219C2.85514 5.01529 2.85217 4.97741 2.83962 4.9418C2.82707 4.9062 2.80531 4.87393 2.77622 4.84778L2.28969 4.41027L2.96185 4.3202Z" fill="#B30038"/>
<path d="M6.26349 4.0202C6.21717 4.02641 6.17365 4.04442 6.13787 4.07221C6.10208 4.1 6.07544 4.13645 6.06097 4.17745C6.0465 4.21845 6.04477 4.26236 6.05597 4.30422C6.06717 4.34608 6.09086 4.38422 6.12436 4.41433L6.88012 5.09375L6.7017 6.0532C6.69379 6.09571 6.69896 6.13941 6.71662 6.17936C6.73428 6.21931 6.76372 6.25391 6.80161 6.27925C6.83951 6.30459 6.88435 6.31965 6.93106 6.32274C6.97777 6.32583 7.02448 6.31683 7.06592 6.29674L7.99978 5.84394L8.93363 6.29674C8.97507 6.31683 9.02179 6.32583 9.0685 6.32274C9.11521 6.31965 9.16004 6.30459 9.19794 6.27925C9.23583 6.25391 9.26528 6.21931 9.28293 6.17936C9.30059 6.13941 9.30576 6.09571 9.29785 6.0532L9.11943 5.09375L9.87519 4.41429C9.9087 4.38418 9.93239 4.34605 9.94359 4.30419C9.95479 4.26233 9.95305 4.21842 9.93858 4.17742C9.92411 4.13642 9.89747 4.09997 9.86169 4.07218C9.8259 4.04439 9.78239 4.02637 9.73607 4.02017L8.6919 3.88027L8.22487 3.0075C8.20416 2.96879 8.1721 2.9362 8.13232 2.91341C8.09254 2.89062 8.04663 2.87854 7.99978 2.87854C7.95293 2.87854 7.90701 2.89062 7.86723 2.91341C7.82745 2.9362 7.79539 2.96879 7.77468 3.0075L7.30765 3.88027L6.26349 4.0202ZM7.69951 4.19367L7.99978 3.63238L8.30004 4.19367C8.31803 4.2273 8.34464 4.25639 8.37756 4.27844C8.41048 4.30049 8.44872 4.31483 8.489 4.32023L9.16116 4.4103L8.67455 4.84774C8.64548 4.8739 8.62373 4.90617 8.61118 4.94177C8.59863 4.97738 8.59565 5.01525 8.6025 5.05215L8.71721 5.66957L8.11668 5.3784C8.08063 5.36092 8.04051 5.35178 7.99978 5.35178C7.95904 5.35178 7.91892 5.36092 7.88287 5.3784L7.28223 5.66964L7.39695 5.05222C7.40379 5.01532 7.40081 4.97744 7.38826 4.94184C7.37571 4.90623 7.35397 4.87397 7.32489 4.84781L6.83828 4.4103L7.51044 4.32023C7.55074 4.31484 7.58901 4.30051 7.62195 4.27846C7.65489 4.25641 7.68151 4.22731 7.69951 4.19367Z" fill="#B30038"/>
<path d="M4.60619 2.21535L4.4278 3.17479C4.4199 3.2173 4.42507 3.26101 4.44272 3.30095C4.46038 3.3409 4.48982 3.3755 4.52772 3.40084C4.56561 3.42618 4.61045 3.44124 4.65716 3.44434C4.70387 3.44743 4.75059 3.43842 4.79203 3.41833L5.72588 2.96553L6.65956 3.41816C6.701 3.43826 6.74772 3.44728 6.79443 3.44419C6.84115 3.4411 6.88599 3.42604 6.92389 3.4007C6.9618 3.37536 6.99124 3.34076 7.0089 3.3008C7.02656 3.26085 7.03172 3.21714 7.02381 3.17463L6.84554 2.21535L7.6013 1.53575C7.63479 1.50564 7.65847 1.4675 7.66966 1.42565C7.68086 1.38379 7.67912 1.33988 7.66464 1.29889C7.65016 1.2579 7.62353 1.22145 7.58774 1.19366C7.55196 1.16588 7.50845 1.14787 7.46213 1.14166L6.41797 1.0017L5.95097 0.128958C5.93026 0.0902533 5.89821 0.0576609 5.85842 0.03487C5.81864 0.0120791 5.77273 0 5.72588 0C5.67903 0 5.63312 0.0120791 5.59334 0.03487C5.55356 0.0576609 5.5215 0.0902533 5.50079 0.128958L5.03372 1.0017L3.98959 1.14166C3.94327 1.14787 3.89977 1.16588 3.86398 1.19366C3.8282 1.22145 3.80156 1.2579 3.78708 1.29889C3.77261 1.33988 3.77087 1.38379 3.78206 1.42565C3.79326 1.4675 3.81694 1.50564 3.85043 1.53575L4.60619 2.21535ZM5.23658 1.44182C5.27686 1.43642 5.31511 1.42208 5.34803 1.40003C5.38095 1.37798 5.40755 1.34889 5.42554 1.31527L5.72588 0.753973L6.02615 1.31527C6.04414 1.34889 6.07074 1.37798 6.10366 1.40003C6.13658 1.42208 6.17483 1.43642 6.21511 1.44182L6.88727 1.53189L6.40066 1.96917C6.37157 1.99532 6.34982 2.02759 6.33726 2.06319C6.32471 2.0988 6.32174 2.13668 6.3286 2.17358L6.44332 2.791L5.84268 2.49979C5.80664 2.48229 5.76652 2.47314 5.72579 2.47314C5.68506 2.47314 5.64494 2.48229 5.60891 2.49979L5.00826 2.791L5.12298 2.17358C5.12984 2.13668 5.12687 2.0988 5.11432 2.06319C5.10177 2.02759 5.08001 1.99532 5.05092 1.96917L4.56446 1.53189L5.23658 1.44182Z" fill="#B30038"/>
<path d="M9.15456 2.21535L8.97614 3.17479C8.96825 3.21731 8.97344 3.26102 8.99112 3.30097C9.0088 3.34091 9.03826 3.3755 9.07618 3.40083C9.1141 3.42615 9.15895 3.4412 9.20567 3.44426C9.25239 3.44732 9.29911 3.43828 9.34054 3.41816L10.2744 2.96536L11.2082 3.41816C11.2497 3.43825 11.2964 3.44726 11.3431 3.44417C11.3898 3.44108 11.4347 3.42601 11.4726 3.40067C11.5105 3.37533 11.5399 3.34073 11.5576 3.30079C11.5752 3.26084 11.5804 3.21714 11.5725 3.17463L11.3939 2.21535L12.1497 1.53592C12.1832 1.50581 12.2068 1.46767 12.218 1.42581C12.2292 1.38395 12.2275 1.34005 12.213 1.29906C12.1985 1.25806 12.1719 1.22161 12.1361 1.19383C12.1003 1.16605 12.0568 1.14803 12.0105 1.14183L10.9664 1.00187L10.4993 0.128958C10.4786 0.0902533 10.4465 0.0576609 10.4068 0.03487C10.367 0.0120791 10.3211 0 10.2742 0C10.2274 0 10.1815 0.0120791 10.1417 0.03487C10.1019 0.0576609 10.0698 0.0902533 10.0491 0.128958L9.58212 1.0017L8.53796 1.14166C8.49164 1.14787 8.44814 1.16588 8.41235 1.19366C8.37657 1.22145 8.34993 1.2579 8.33545 1.29889C8.32098 1.33988 8.31924 1.38379 8.33043 1.42565C8.34163 1.4675 8.36531 1.50564 8.3988 1.53575L9.15456 2.21535ZM9.78506 1.44166C9.82534 1.43626 9.86359 1.42191 9.89651 1.39987C9.92943 1.37782 9.95603 1.34873 9.97402 1.3151L10.2743 0.753808L10.5746 1.3151C10.5926 1.34873 10.6192 1.37782 10.6521 1.39987C10.6851 1.42191 10.7233 1.43626 10.7636 1.44166L11.4356 1.53189L10.949 1.96917C10.9199 1.99532 10.8982 2.02759 10.8856 2.06319C10.8731 2.0988 10.8701 2.13668 10.877 2.17358L10.9917 2.791L10.391 2.49979C10.355 2.48229 10.3149 2.47314 10.2742 2.47314C10.2334 2.47314 10.1933 2.48229 10.1573 2.49979L9.55663 2.791L9.67135 2.17358C9.67821 2.13668 9.67524 2.0988 9.66269 2.06319C9.65014 2.02759 9.62838 1.99532 9.59929 1.96917L9.11283 1.53189L9.78506 1.44166Z" fill="#B30038"/>
<path d="M6.37253 10.6743C6.37253 10.7356 6.39897 10.7944 6.44603 10.8378C6.49309 10.8811 6.55692 10.9054 6.62347 10.9054H8.49243C8.43878 11.0854 8.32254 11.2442 8.16152 11.3575C8.0005 11.4708 7.80359 11.5324 7.60095 11.5328H6.62347C6.57294 11.5312 6.52311 11.5441 6.48095 11.5698C6.43878 11.5955 6.40638 11.6327 6.38825 11.6762C6.37012 11.7196 6.36717 11.7672 6.37982 11.8123C6.39246 11.8574 6.42006 11.8978 6.45878 11.9277L8.29423 13.3959C8.34473 13.4357 8.4103 13.4556 8.47664 13.4511C8.54297 13.4466 8.60467 13.4181 8.64827 13.3718C8.66986 13.3495 8.68639 13.3235 8.69686 13.2953C8.70734 13.267 8.71155 13.2371 8.70925 13.2074C8.70695 13.1776 8.69818 13.1486 8.68347 13.122C8.66876 13.0954 8.6484 13.0718 8.62361 13.0526L7.29456 11.995H7.60106C8.30308 11.995 8.88802 11.4998 9.00665 10.9054H9.37664C9.44319 10.9054 9.50702 10.8811 9.55408 10.8378C9.60114 10.7944 9.62758 10.7356 9.62758 10.6743C9.62758 10.613 9.60114 10.5542 9.55408 10.5109C9.50702 10.4676 9.44319 10.4432 9.37664 10.4432H9.00632C8.963 10.2114 8.85258 9.99469 8.6867 9.81588H9.37664C9.44319 9.81588 9.50702 9.79153 9.55408 9.74818C9.60114 9.70484 9.62758 9.64605 9.62758 9.58476C9.62758 9.52346 9.60114 9.46468 9.55408 9.42133C9.50702 9.37799 9.44319 9.35364 9.37664 9.35364H6.62347C6.55692 9.35364 6.49309 9.37799 6.44603 9.42133C6.39897 9.46468 6.37253 9.52346 6.37253 9.58476C6.37253 9.64605 6.39897 9.70484 6.44603 9.74818C6.49309 9.79153 6.55692 9.81588 6.62347 9.81588H7.60106C7.8036 9.81643 8.00036 9.87806 8.16127 9.99135C8.32217 10.1046 8.43837 10.2633 8.49208 10.4432H6.62347C6.55692 10.4432 6.49309 10.4676 6.44603 10.5109C6.39897 10.5542 6.37253 10.613 6.37253 10.6743Z" fill="#B30038"/>
</svg>
