<svg width="30" height="30" viewBox="0 0 30 30" fill="none" xmlns="http://www.w3.org/2000/svg">
<path d="M13.1015 18.4046C13.1612 18.4642 13.2447 18.5 13.3164 18.5C13.388 18.5 13.4716 18.4642 13.5313 18.4046L15 16.9382L16.4686 18.4046C16.5283 18.4642 16.6119 18.5 16.6836 18.5C16.7671 18.5 16.8388 18.4642 16.8985 18.4046C17.0179 18.2854 17.0179 18.0946 16.8985 17.9635L15.4418 16.497L16.9104 15.0306C17.0298 14.9113 17.0298 14.7206 16.9104 14.5894C16.791 14.4702 16.6 14.4702 16.4686 14.5894L15 16.0678L13.5313 14.6013C13.4119 14.4821 13.2209 14.4821 13.0895 14.6013C12.9701 14.7206 12.9701 14.9113 13.0895 15.0425L14.5582 16.497L13.1015 17.9635C12.9821 18.0827 12.9821 18.2854 13.1015 18.4046Z" fill="#F1618F"/>
<path d="M19.6949 10.6959H16.6779V10.1237C16.6779 9.2268 16.1469 8.5 15.4915 8.5H14.4971C13.8418 8.5 13.3107 9.2268 13.3107 10.1237V10.6959H10.2938C10.1356 10.6959 9.99997 10.8814 9.99997 11.0979C9.99997 11.3144 10.1356 11.5 10.2938 11.5H19.7062C19.8644 11.5 20 11.3144 20 11.0979C20 10.8814 19.8644 10.6959 19.6949 10.6959ZM13.887 10.1237C13.887 9.65979 14.1582 9.28866 14.4971 9.28866H15.4915C15.8305 9.28866 16.1017 9.65979 16.1017 10.1237V10.6959H13.887V10.1237Z" fill="#F1618F"/>
<path d="M19.6491 13.5C19.4602 13.5 19.2982 13.6631 19.2982 13.8534V19.8826C19.2982 20.3855 18.8934 20.7932 18.394 20.7932H11.6059C11.1066 20.7932 10.7017 20.3855 10.7017 19.8826V13.8534C10.7017 13.6631 10.5398 13.5 10.3508 13.5C10.1619 13.5 9.99997 13.6631 9.99997 13.8534V19.8826C9.99997 20.7796 10.7152 21.5 11.6059 21.5H18.394C19.2847 21.5 20 20.7796 20 19.8826V13.8534C19.9865 13.6631 19.838 13.5 19.6491 13.5Z" fill="#F1618F"/>
</svg>
