<svg width="30" height="30" viewBox="0 0 30 30" fill="none" xmlns="http://www.w3.org/2000/svg">
<path opacity="0.6" d="M19.1033 8.96102C17.8835 7.70538 16.2291 6.99998 14.5041 7C12.7791 7.00002 11.1247 7.70545 9.90499 8.96111C8.68523 10.2168 7.99998 11.9198 8 13.6956C8.00002 15.4713 8.68529 17.1743 9.90507 18.43L14.2317 22.8839C14.2674 22.9207 14.3098 22.9499 14.3565 22.9698C14.4031 22.9897 14.4532 23 14.5037 23C14.5542 23 14.6042 22.9897 14.6509 22.9698C14.6976 22.9499 14.74 22.9207 14.7756 22.8839L19.1023 18.43C20.3177 17.1719 21 15.4698 21 13.6955C21 11.9212 20.3177 10.219 19.1023 8.96102H19.1033ZM14.5042 17.9373C13.6813 17.9373 12.8768 17.6861 12.1926 17.2154C11.5084 16.7448 10.9751 16.0759 10.6601 15.2932C10.3452 14.5106 10.2628 13.6494 10.4234 12.8185C10.5839 11.9877 10.9802 11.2245 11.5621 10.6255C12.144 10.0265 12.8853 9.61855 13.6925 9.45329C14.4996 9.28802 15.3362 9.37284 16.0964 9.69702C16.8567 10.0212 17.5065 10.5702 17.9637 11.2745C18.4209 11.9789 18.6649 12.807 18.6649 13.6541C18.6637 14.7897 18.2249 15.8784 17.4449 16.6814C16.6649 17.4843 15.6073 17.936 14.5042 17.9373Z" fill="white"/>
</svg>
