<svg width="36" height="30" viewBox="0 0 36 30" fill="none" xmlns="http://www.w3.org/2000/svg">
<path d="M17.9584 7.00002C12.4904 7.21627 10 11.3101 10 15.0222C10.0419 25.1819 25.3631 26.126 26 15.0228C25.9966 12.8922 25.1475 10.8506 23.6393 9.3457C22.1316 7.84142 20.0883 6.99812 17.9584 7.00002ZM18.0016 21.9651C13.2456 21.7766 11.0801 18.2342 11.0808 15.0222C11.1274 6.22965 24.3674 5.42071 24.9192 15.0228C24.9179 16.8603 24.1897 18.6221 22.8934 19.9229C21.5965 21.2244 19.8383 21.9584 18.0016 21.9651ZM20.8367 12.7022C20.9238 13.2834 20.83 13.8768 20.5665 14.4012C20.3031 14.9262 19.8836 15.3567 19.3662 15.6331C18.6563 16.0109 18.4631 16.9137 18.5191 17.6321C18.5374 17.9267 18.3165 18.1822 18.022 18.2058C17.7275 18.2288 17.4688 18.0105 17.4411 17.7166C17.358 16.6576 17.687 15.302 18.8609 14.677H18.8616C19.4317 14.3614 19.789 13.7633 19.7971 13.1112C19.8059 12.4591 19.4641 11.8522 18.9028 11.5218C18.3408 11.1906 17.6451 11.1866 17.079 11.5103C16.513 11.8347 16.1644 12.4368 16.1651 13.0889C16.1651 13.2328 16.1077 13.37 16.0063 13.4714C15.905 13.5728 15.7679 13.6295 15.6247 13.6295C14.3838 13.4883 15.5186 11.194 16.1759 10.8223C17.8308 9.43421 20.6415 10.4769 20.8367 12.7022ZM17.98 19.854C17.6889 19.8439 17.4579 19.6047 17.4579 19.3134C17.4579 19.0222 17.6889 18.7829 17.98 18.7728C18.2712 18.7829 18.5022 19.0222 18.5022 19.3134C18.5022 19.6047 18.2712 19.8439 17.98 19.854Z" fill="white" fill-opacity="0.8"/>
</svg>
