<svg width="25" height="24" viewBox="0 0 25 24" fill="none" xmlns="http://www.w3.org/2000/svg">
<path d="M13.9427 18.9208C13.826 18.9728 13.6996 18.9997 13.5718 19C13.3455 18.9993 13.1278 18.9139 12.9618 18.7607L11.3149 17.2629C11.0631 17.0332 10.8619 16.7538 10.7242 16.4426C10.5864 16.1313 10.5151 15.7949 10.5147 15.4547V11.396L5.79107 6.6899C5.65209 6.55146 5.55744 6.37507 5.5191 6.18303C5.48075 5.991 5.50043 5.79194 5.57564 5.61105C5.65085 5.43016 5.77823 5.27555 5.94164 5.16678C6.10506 5.05801 6.29718 4.99997 6.49371 5H18.5063C18.7028 4.99997 18.8949 5.05801 19.0584 5.16678C19.2218 5.27555 19.3491 5.43016 19.4244 5.61105C19.4996 5.79194 19.5192 5.99099 19.4809 6.18303C19.4426 6.37507 19.3479 6.55146 19.2089 6.6899L14.4856 11.396V18.0916C14.487 18.2677 14.4362 18.4403 14.3397 18.5878C14.2431 18.7353 14.1051 18.8511 13.9427 18.9208ZM18.5858 6.06905C18.6015 6.0534 18.6122 6.03346 18.6165 6.01176C18.6208 5.99005 18.6186 5.96756 18.6101 5.94711C18.6016 5.92667 18.5872 5.90921 18.5687 5.89692C18.5502 5.88464 18.5285 5.87809 18.5063 5.87811H6.49373C6.47151 5.87809 6.4498 5.88464 6.43132 5.89692C6.41284 5.90921 6.39844 5.92667 6.38993 5.94711C6.38142 5.96756 6.37919 5.99005 6.38352 6.01176C6.38785 6.03346 6.39855 6.0534 6.41425 6.06905L11.267 10.9038C11.3497 10.9861 11.3961 11.0978 11.3961 11.2142V15.4547C11.3963 15.6729 11.4421 15.8887 11.5304 16.0884C11.6188 16.2881 11.7479 16.4673 11.9094 16.6146L13.5563 18.1125C13.5604 18.1161 13.5654 18.1186 13.5709 18.1195C13.5763 18.1203 13.5819 18.1196 13.587 18.1174C13.592 18.1152 13.5963 18.1116 13.5994 18.107C13.6024 18.1025 13.6041 18.0971 13.6042 18.0916V11.2142C13.6042 11.0978 13.6506 10.9861 13.7333 10.9038L18.5858 6.06905Z" fill="#E7C140"/>
</svg>
