<svg width="365" height="285" viewBox="0 0 365 285" fill="none" xmlns="http://www.w3.org/2000/svg">
<path d="M175.725 0.981445L176.073 1.24902L176.66 1.03027L176.794 1.375L177.605 0.431641L178.371 1.07422L178.061 1.4541L178.42 1.33496L178.702 2.14062L352.777 10.9375L352.238 18.9189L182.588 3.58496L364.627 60.4453L362.127 68.0459L183.883 5.43262L338.684 85.2725L334.899 92.3213L182.224 5.99121L334.85 123.688L329.871 129.95L180.328 6.13477L356.403 203.243L350.378 208.507L181.56 9.45898L341.387 267.976L334.542 272.117L179.474 8.29395L274.249 253.129L266.757 255.935L177.884 7.41699L229.708 282.783L221.831 284.181L177.562 12.5771L181.227 122.505H180.071L184.871 274.522L176.872 274.688L175.977 122.505H173.227L175.452 33.4199L175.326 11.9355L141.4 253.979L133.496 252.744L174.708 7.94238L88.6514 264.821L81.1025 262.171L173.161 8.79688L20.2705 281.432L13.3428 277.432L171.071 10.0596L13.9082 203.54L7.77734 198.401L172.278 6.63965L13.0342 143.699L7.92773 137.541L170.44 6.5166L14.3584 98.9121L10.4307 91.9424L168.629 6.08301L2.65527 68.4795L0 60.9336L169.893 4.18164L2.58887 22.8213L1.88477 14.8525L174.658 2.58984L175.24 2.39551L173.739 1.87012L174.051 0.919922L174.413 1.03223L174.095 0.658203L174.847 0L175.725 0.981445Z" fill="url(#paint0_linear_222_883)" fill-opacity="0.06"/>
<defs>
<linearGradient id="paint0_linear_222_883" x1="176.313" y1="-1.71649e-06" x2="192.227" y2="204.505" gradientUnits="userSpaceOnUse">
<stop stop-color="#D9D9D9"/>
<stop offset="0.581242" stop-color="#12151D"/>
</linearGradient>
</defs>
</svg>
