<svg width="36" height="30" viewBox="0 0 36 30" fill="none" xmlns="http://www.w3.org/2000/svg">
<path d="M25.9574 15.683L23.4541 10.0529C23.3755 9.87657 23.2006 9.7628 23.0073 9.7628H18.4886V9H17.5106V9.76241H12.9923C12.799 9.76241 12.6238 9.87618 12.5455 10.0525L10.0419 15.6826H10.0422C10.0153 15.7432 10 15.8104 10 15.8808C10 17.1851 11.0617 18.2462 12.3667 18.2462H13.6186C14.9236 18.2462 15.9853 17.1851 15.9853 15.8808C15.9853 15.81 15.9701 15.7432 15.9431 15.6826H15.9435L13.7445 10.7398H17.5106V21.0226H14.2441V22H21.7551V21.0226H18.4886V10.7398H22.2547L20.0565 15.6826H20.0569C20.0299 15.7432 20.0147 15.8104 20.0147 15.8808C20.0147 17.1851 21.0764 18.2462 22.3814 18.2462H23.6333C24.9383 18.2462 26 17.1851 26 15.8808C25.9996 15.8104 25.9844 15.7436 25.9574 15.683ZM12.9923 11.4546L14.7437 15.3925H11.2413L12.9923 11.4546ZM13.6182 17.2692H12.3664C11.7725 17.2692 11.2647 16.895 11.0664 16.3699H14.9181C14.7198 16.895 14.212 17.2692 13.6182 17.2692ZM24.7583 15.3925H21.2559L23.0069 11.4546L24.7583 15.3925ZM23.6329 17.2692H22.381C21.7872 17.2692 21.2794 16.895 21.0811 16.3699H24.9328C24.7345 16.895 24.2267 17.2692 23.6329 17.2692Z" fill="white" fill-opacity="0.8"/>
</svg>
