<svg width="36" height="30" viewBox="0 0 36 30" fill="none" xmlns="http://www.w3.org/2000/svg">
<path d="M25.6455 17.1688C25.3607 17.0635 25.0429 17.2015 24.9342 17.4768C23.8837 20.1428 21.1986 21.9334 18.2555 21.9334C14.3108 21.9334 11.1008 18.8227 11.1008 15.0001C11.1008 11.1775 14.3108 8.06675 18.2555 8.06675C21.1993 8.06675 23.8843 9.85739 24.9349 12.5241C25.0436 12.8001 25.36 12.9367 25.6462 12.8321C25.9304 12.7267 26.0714 12.4187 25.9641 12.1434C24.7505 9.06677 21.6527 7 18.2555 7C13.7032 7 10 10.5886 10 15C10 19.4114 13.7032 23 18.2555 23C21.6526 23 24.7505 20.9334 25.9634 17.8573C26.0714 17.582 25.929 17.2735 25.6455 17.1688Z" fill="white"/>
<path d="M19.0603 17.0695C19.169 17.1881 19.3204 17.2488 19.4717 17.2488C19.6017 17.2488 19.7324 17.2048 19.837 17.1141L21.8306 15.3988C21.9483 15.2981 22.0157 15.1521 22.0157 15.0001C22.0157 14.8474 21.9483 14.7028 21.8306 14.6014L19.837 12.8861C19.61 12.6901 19.2626 12.7101 19.0596 12.9301C18.858 13.1501 18.8787 13.4874 19.1057 13.6834L20.0172 14.4667H15.0455C14.7414 14.4667 14.4951 14.7054 14.4951 15.0001C14.4951 15.2947 14.7414 15.5334 15.0455 15.5334H20.0172L19.1071 16.3161C18.8794 16.5114 18.8594 16.8495 19.0603 17.0695Z" fill="white"/>
</svg>
