<svg width="16" height="16" viewBox="0 0 16 16" fill="none" xmlns="http://www.w3.org/2000/svg">
<path d="M8.00001 13.4C6.93199 13.4 5.88795 13.0833 4.99993 12.4899C4.1119 11.8966 3.41977 11.0532 3.01106 10.0665C2.60235 9.07975 2.49541 7.99399 2.70377 6.94649C2.91213 5.89899 3.42643 4.9368 4.18163 4.1816C4.93684 3.4264 5.89902 2.9121 6.94652 2.70374C7.99402 2.49538 9.07978 2.60232 10.0665 3.01103C11.0532 3.41974 11.8966 4.11187 12.4899 4.9999C13.0833 5.88792 13.4 6.93196 13.4 7.99998C13.4 9.43215 12.8311 10.8057 11.8184 11.8184C10.8057 12.8311 9.43218 13.4 8.00001 13.4ZM8.00001 3.31998C7.07439 3.31998 6.16956 3.59446 5.39994 4.1087C4.63032 4.62295 4.03047 5.35386 3.67625 6.20902C3.32203 7.06418 3.22935 8.00517 3.40993 8.913C3.59051 9.82083 4.03624 10.6547 4.69075 11.3092C5.34526 11.9637 6.17915 12.4095 7.08699 12.5901C7.99482 12.7706 8.93581 12.678 9.79097 12.3237C10.6461 11.9695 11.377 11.3697 11.8913 10.6C12.4055 9.83042 12.68 8.92559 12.68 7.99998C12.68 6.75876 12.1869 5.56839 11.3093 4.69072C10.4316 3.81305 9.24122 3.31998 8.00001 3.31998ZM6.45561 10.0556L8.25561 8.25558C8.28897 8.22194 8.31537 8.18205 8.33329 8.13818C8.3512 8.09432 8.36028 8.04736 8.36001 7.99998V5.83998C8.36001 5.7445 8.32208 5.65293 8.25457 5.58542C8.18705 5.51791 8.09549 5.47998 8.00001 5.47998C7.90453 5.47998 7.81296 5.51791 7.74545 5.58542C7.67794 5.65293 7.64001 5.7445 7.64001 5.83998V7.85238L5.94441 9.54438C5.91067 9.57785 5.88388 9.61766 5.86561 9.66153C5.84733 9.7054 5.83792 9.75245 5.83792 9.79998C5.83792 9.8475 5.84733 9.89456 5.86561 9.93843C5.88388 9.98229 5.91067 10.0221 5.94441 10.0556C5.97788 10.0893 6.01769 10.1161 6.06156 10.1344C6.10543 10.1527 6.15248 10.1621 6.20001 10.1621C6.24753 10.1621 6.29459 10.1527 6.33846 10.1344C6.38233 10.1161 6.42214 10.0893 6.45561 10.0556Z" fill="white"/>
</svg>
