<svg width="16" height="16" viewBox="0 0 16 16" fill="none" xmlns="http://www.w3.org/2000/svg">
<path d="M3.53452 5.19161L3.85141 4.86114L7.51453 0.907715L9.27427 1.3996L5.68932 5.44244L5.68952 5.44475C4.71688 6.00793 3.63605 5.52635 3.53452 5.19161Z" fill="white"/>
<path d="M12.7939 0.997999L12.1392 1.67655L10.4957 1.24777L10.4904 0.891337L10.4876 0.592684L10.1117 1.00618L10.1111 0.449757L9.25368 1.31087L7.79189 0.900581L7.81526 0L3.06588 4.97115L3.04613 4.99195L3 14.8164V14.8432L3.01914 14.8639C3.04815 14.8951 3.73976 15.6332 4.70071 15.645C5.20376 15.6508 5.68242 15.4553 6.12845 15.0615L6.13046 15.2713C6.13046 15.2713 7.71111 16.9262 9.29014 15.2482L13 10.9049L12.7939 0.997999ZM9.1326 1.43833L5.62722 5.39122C4.98255 5.75672 4.36871 5.61326 4.1332 5.53397C3.85499 5.44046 3.68576 5.30607 3.63097 5.20634L7.5437 0.994088L9.1326 1.43833ZM6.03356 5.49148C6.03356 5.48811 6.0386 5.62375 6.03961 5.62499L6.12623 14.8443C5.68141 15.2806 5.20335 15.5012 4.70373 15.4955C3.90556 15.4864 3.28446 14.9042 3.16922 14.7892L3.21475 5.0467L7.6414 0.412959L7.63879 0.863961L7.48548 0.821118L3.7869 4.81276L3.4414 5.1731L3.45268 5.21079C3.50486 5.38269 3.74822 5.56437 4.07297 5.6737C4.33446 5.76169 5.02002 5.92151 5.73581 5.50713L5.7763 5.48135L5.77529 5.46642L9.3812 1.40011L9.38543 1.40118L9.94186 0.844406L9.94226 1.19195L6.03356 5.49148ZM8.55119 5.85876L8.55139 5.86107C7.59003 6.439 6.49994 5.97395 6.39196 5.64081L6.70241 5.30554L10.2878 1.29701L12.0568 1.76205L8.55119 5.85876Z" fill="white"/>
</svg>
