<svg width="16" height="16" viewBox="0 0 16 16" fill="none" xmlns="http://www.w3.org/2000/svg">
<path d="M10.6611 7.57895L6.77053 4.98527C6.43368 4.76632 5.99579 5.00211 5.99579 5.40632V10.5937C5.99579 10.9979 6.45053 11.2337 6.77053 11.0147L10.6611 8.42106C10.9642 8.21895 10.9642 7.78106 10.6611 7.57895Z" fill="white"/>
<path d="M8 0C3.58737 0 0 3.58737 0 8C0 12.4126 3.58737 16 8 16C12.4126 16 16 12.4126 16 8C16 3.58737 12.4126 0 8 0ZM8 14.7537C4.27789 14.7537 1.24632 11.7221 1.24632 8C1.24632 4.27789 4.27789 1.24632 8 1.24632C11.7221 1.24632 14.7537 4.27789 14.7537 8C14.7537 11.7221 11.7221 14.7537 8 14.7537Z" fill="white"/>
</svg>
