<svg width="16" height="16" viewBox="0 0 16 16" fill="none" xmlns="http://www.w3.org/2000/svg">
<path d="M15.8214 2.71853C15.8214 2.05314 15.1994 1.5 14.4409 1.5H1.37553C0.617033 1.5 0 2.05314 0 2.71853V12.7815C0 13.4469 0.617033 14 1.37553 14H14.4409C15.1994 14 15.8214 13.4469 15.8214 12.7815V9.18598C15.8737 9.17331 15.9196 9.14582 15.952 9.10785C15.9843 9.06988 16.0012 9.0236 15.9999 8.97634V6.52366C16.0012 6.4764 15.9843 6.43012 15.952 6.39215C15.9196 6.35418 15.8737 6.32669 15.8214 6.31402V2.71853ZM15.4999 6.75498V8.74502H12.6652C12.3621 8.74502 12.0714 8.64019 11.857 8.45359C11.6427 8.26699 11.5223 8.0139 11.5223 7.75C11.5223 7.4861 11.6427 7.23301 11.857 7.04641C12.0714 6.85981 12.3621 6.75498 12.6652 6.75498H15.4999ZM14.4409 13.5647H1.37553C0.892853 13.5647 0.499998 13.2068 0.499998 12.7815V2.71853C0.499998 2.29319 0.892853 1.93532 1.37553 1.93532H14.4409C14.9237 1.93532 15.3214 2.29319 15.3214 2.71853V2.80597H2.7396C2.67329 2.80597 2.6097 2.8289 2.56282 2.86972C2.51594 2.91054 2.4896 2.9659 2.4896 3.02363C2.4896 3.08136 2.51594 3.13672 2.56282 3.17754C2.6097 3.21836 2.67329 3.24129 2.7396 3.24129H15.3214V6.31965H12.6652C12.2295 6.31965 11.8116 6.47035 11.5035 6.73859C11.1954 7.00683 11.0223 7.37065 11.0223 7.75C11.0223 8.12935 11.1954 8.49317 11.5035 8.76141C11.8116 9.02965 12.2295 9.18035 12.6652 9.18035H15.3214V12.7815C15.3214 13.2068 14.9237 13.5647 14.4409 13.5647Z" fill="#B30038"/>
<path d="M12.0847 7.82259C12.0855 7.94298 12.1273 8.06046 12.2047 8.16021C12.2821 8.25997 12.3917 8.33753 12.5196 8.38312C12.6476 8.4287 12.7882 8.44027 12.9238 8.41635C13.0593 8.39244 13.1836 8.33412 13.2811 8.24874C13.3786 8.16337 13.4449 8.05477 13.4715 7.93665C13.4982 7.81852 13.4841 7.69616 13.431 7.58501C13.3779 7.47385 13.2882 7.37888 13.1732 7.31206C13.0582 7.24525 12.923 7.2096 12.7847 7.20959C12.5986 7.21024 12.4203 7.27514 12.2891 7.39006C12.1579 7.50498 12.0844 7.66054 12.0847 7.82259ZM12.7847 7.64492C12.8252 7.64421 12.8651 7.65402 12.8992 7.67312C12.9333 7.69221 12.9601 7.71971 12.9762 7.75211C12.9923 7.78452 12.9969 7.82036 12.9895 7.85506C12.9821 7.88976 12.963 7.92176 12.9346 7.94697C12.9062 7.97218 12.8699 7.98946 12.8302 7.99661C12.7905 8.00376 12.7492 8.00045 12.7117 7.98711C12.6741 7.97376 12.642 7.95099 12.6194 7.92169C12.5968 7.89239 12.5847 7.85789 12.5847 7.82259C12.5842 7.77598 12.605 7.73109 12.6425 7.69779C12.6799 7.66448 12.731 7.64547 12.7846 7.64492H12.7847Z" fill="#B30038"/>
<path d="M7.83319 5.13813C7.83319 5.08041 7.80685 5.02504 7.75996 4.98422C7.71308 4.9434 7.64949 4.92047 7.58319 4.92047H3.41706C3.35076 4.92047 3.28717 4.9434 3.24028 4.98422C3.1934 5.02504 3.16706 5.08041 3.16706 5.13813C3.16706 5.19586 3.1934 5.25122 3.24028 5.29204C3.28717 5.33286 3.35076 5.35579 3.41706 5.35579H4.89634C5.65505 5.35579 6.2863 5.85331 6.40655 6.4752H3.41706C3.35076 6.4752 3.28717 6.49813 3.24028 6.53895C3.1934 6.57977 3.16706 6.63513 3.16706 6.69286C3.16706 6.75059 3.1934 6.80595 3.24028 6.84677C3.28717 6.88759 3.35076 6.91052 3.41706 6.91052H6.40698C6.28776 7.53241 5.65591 8.02992 4.89627 8.02992H3.41699C3.36597 8.03013 3.31624 8.04385 3.2744 8.06927C3.23257 8.09469 3.20062 8.1306 3.1828 8.17223C3.16499 8.21385 3.16215 8.25921 3.17468 8.30226C3.1872 8.34532 3.2145 8.38404 3.25292 8.41326L6.03037 10.5162C6.0552 10.535 6.08403 10.5493 6.11521 10.5584C6.1464 10.5674 6.17932 10.571 6.21211 10.569C6.2449 10.567 6.27692 10.5594 6.30632 10.5466C6.33573 10.5338 6.36195 10.5161 6.38349 10.4945C6.40504 10.4728 6.42148 10.4477 6.43188 10.4206C6.44228 10.3934 6.44644 10.3648 6.44412 10.3362C6.4418 10.3077 6.43304 10.2798 6.41834 10.2542C6.40365 10.2286 6.38331 10.2058 6.35848 10.187L4.08556 8.46525H4.89627C5.39181 8.46354 5.86969 8.30479 6.24059 8.01867C6.61149 7.73254 6.85004 7.33862 6.91165 6.91052H7.58308C7.64938 6.91052 7.71297 6.88759 7.75986 6.84677C7.80674 6.80595 7.83308 6.75059 7.83308 6.69286C7.83308 6.63513 7.80674 6.57977 7.75986 6.53895C7.71297 6.49813 7.64938 6.4752 7.58308 6.4752H6.9113C6.84724 6.04233 6.60464 5.64449 6.22869 5.35579H7.58319C7.64949 5.35579 7.71308 5.33286 7.75996 5.29204C7.80685 5.25122 7.83319 5.19586 7.83319 5.13813Z" fill="#B30038"/>
</svg>
