<svg width="36" height="30" viewBox="0 0 36 30" fill="none" xmlns="http://www.w3.org/2000/svg">
<path d="M19.1865 11.7805C19.8772 11.7805 20.4371 11.2282 20.4371 10.547C20.4371 9.86574 19.8772 9.31348 19.1865 9.31348C18.4958 9.31348 17.9359 9.86574 17.9359 10.547C17.9359 11.2282 18.4958 11.7805 19.1865 11.7805Z" fill="white" fill-opacity="0.8"/>
<path fill-rule="evenodd" clip-rule="evenodd" d="M18.4483 22.8597C18.4483 22.9109 18.4765 22.958 18.522 22.9826C18.5675 23.0073 18.6229 23.0056 18.6667 22.9783L24.9336 19.0633C24.9871 19.0299 25.0117 18.9656 24.9941 18.9056C24.9765 18.8457 24.9207 18.8044 24.8574 18.8044H20.3205C19.8239 18.8044 19.3477 18.9989 18.9967 19.3452C18.6455 19.6916 18.4483 20.1612 18.4483 20.651V22.8597Z" fill="white" fill-opacity="0.8"/>
<path fill-rule="evenodd" clip-rule="evenodd" d="M15.0725 15.5332H23.3105C23.389 15.5332 23.4528 15.4703 23.4528 15.3928C23.4528 15.3154 23.389 15.2525 23.3105 15.2525H15.0725C14.994 15.2525 14.9302 15.3154 14.9302 15.3928C14.9302 15.4703 14.994 15.5332 15.0725 15.5332Z" fill="white" fill-opacity="0.8"/>
<path fill-rule="evenodd" clip-rule="evenodd" d="M15.0725 17.4583H23.3105C23.389 17.4583 23.4528 17.3954 23.4528 17.3179C23.4528 17.2405 23.389 17.1776 23.3105 17.1776H15.0725C14.994 17.1776 14.9302 17.2405 14.9302 17.3179C14.9302 17.3954 14.994 17.4583 15.0725 17.4583Z" fill="white" fill-opacity="0.8"/>
<path fill-rule="evenodd" clip-rule="evenodd" d="M15.0725 19.3835H18.4792C18.5577 19.3835 18.6215 19.3206 18.6215 19.2431C18.6215 19.1656 18.5577 19.1028 18.4792 19.1028H15.0725C14.994 19.1028 14.9302 19.1656 14.9302 19.2431C14.9302 19.3206 14.994 19.3835 15.0725 19.3835Z" fill="white" fill-opacity="0.8"/>
<path fill-rule="evenodd" clip-rule="evenodd" d="M11.8854 7H23.1278C23.6244 7 24.1006 7.19456 24.4517 7.5409C24.8028 7.88717 25 8.35687 25 8.84664V18.9447C25 18.9928 24.9751 19.0375 24.9339 19.0633L18.667 22.9782C18.6443 22.9925 18.6178 23 18.5909 23H15.2608C14.7643 23 14.2881 22.8054 13.9369 22.4592C13.5859 22.1128 13.3886 21.6431 13.3886 21.1534C13.3886 19.6326 13.3792 8.75421 13.3792 8.75421C13.3792 8.75414 13.3792 8.75407 13.3792 8.75407C13.3792 7.94033 12.7104 7.28072 11.8854 7.28072C11.8068 7.28072 11.7431 7.21787 11.7431 7.1404C11.7431 7.06285 11.8068 7 11.8854 7ZM12.8507 7.28072H23.1278C23.5489 7.28072 23.9527 7.44571 24.2505 7.73937C24.5482 8.03303 24.7155 8.43131 24.7155 8.84664V18.8675L18.5496 22.7193H15.2608C14.8398 22.7193 14.436 22.5544 14.1382 22.2607C13.8405 21.967 13.6732 21.5687 13.6732 21.1534C13.6732 19.6325 13.6637 8.75394 13.6637 8.75394C13.6637 8.13624 13.34 7.59311 12.8507 7.28072Z" fill="white" fill-opacity="0.8"/>
<path fill-rule="evenodd" clip-rule="evenodd" d="M13.6636 8.75407C13.6636 7.78531 12.8674 7 11.8853 7H11.7784C10.7962 7 10 7.78531 10 8.75407C10 10.4692 10 13.1703 10 14.92C10 15.9399 10.8382 16.7666 11.8722 16.7666C12.7033 16.7666 13.5213 16.7666 13.5213 16.7666C13.5999 16.7666 13.6636 16.7037 13.6636 16.6263V8.75407Z" fill="white" fill-opacity="0.8"/>
<path fill-rule="evenodd" clip-rule="evenodd" d="M20.5491 11.2448C20.2931 11.7297 19.7787 12.0611 19.1866 12.0611C18.5953 12.0611 18.0817 11.7308 17.8252 11.2471C17.3251 11.5657 17.0562 12.1581 17.1712 12.7542L17.2296 13.0575C17.2349 13.085 17.2484 13.1103 17.2684 13.1301C17.7582 13.6175 18.4375 13.9195 19.1877 13.9195C19.9364 13.9195 20.6144 13.6187 21.1041 13.133C21.1242 13.1131 21.1377 13.0878 21.143 13.0603L21.2045 12.7413C21.3188 12.1482 21.0493 11.5588 20.5491 11.2448Z" fill="white" fill-opacity="0.8"/>
</svg>
