<svg width="18" height="18" viewBox="0 0 18 18" fill="none" xmlns="http://www.w3.org/2000/svg">
<g clip-path="url(#clip0_223_1107)">
<g opacity="0.6">
<path d="M14.2896 4.74842V2.24932C14.2896 2.02839 14.2018 1.8165 14.0456 1.66028C13.8894 1.50406 13.6775 1.41629 13.4565 1.41629H2.62712C2.18526 1.41629 1.76149 1.59182 1.44904 1.90427C1.13659 2.21672 0.96106 2.64049 0.96106 3.08235C0.96106 3.52422 1.13659 3.94799 1.44904 4.26044C1.76149 4.57289 2.18526 4.74842 2.62712 4.74842H15.1226C15.3435 4.74842 15.5554 4.83618 15.7116 4.99241C15.8679 5.14863 15.9556 5.36052 15.9556 5.58145V8.91358M15.9556 8.91358H13.4565C13.0147 8.91358 12.5909 9.08911 12.2785 9.40156C11.966 9.714 11.7905 10.1378 11.7905 10.5796C11.7905 11.0215 11.966 11.4453 12.2785 11.7577C12.5909 12.0702 13.0147 12.2457 13.4565 12.2457H15.9556C16.1766 12.2457 16.3885 12.1579 16.5447 12.0017C16.7009 11.8455 16.7887 11.6336 16.7887 11.4127V9.74661C16.7887 9.52568 16.7009 9.31379 16.5447 9.15757C16.3885 9.00134 16.1766 8.91358 15.9556 8.91358Z" stroke="white" stroke-width="1.66606" stroke-linecap="round" stroke-linejoin="round"/>
<path d="M0.96106 3.08237V14.7448C0.96106 15.1867 1.13659 15.6105 1.44904 15.9229C1.76149 16.2353 2.18526 16.4109 2.62712 16.4109H15.1226C15.3435 16.4109 15.5554 16.3231 15.7116 16.1669C15.8679 16.0107 15.9556 15.7988 15.9556 15.5778V12.2457" stroke="white" stroke-width="1.66606" stroke-linecap="round" stroke-linejoin="round"/>
</g>
</g>
<defs>
<clipPath id="clip0_223_1107">
<rect width="18" height="18" fill="white"/>
</clipPath>
</defs>
</svg>
