<svg width="18" height="18" viewBox="0 0 18 18" fill="none" xmlns="http://www.w3.org/2000/svg">
<g opacity="0.6">
<path d="M7.40871 10.8635V12.0554C7.40594 12.3066 7.33869 12.5529 7.2134 12.7706C7.08812 12.9883 6.909 13.1701 6.69323 13.2987C6.23517 13.638 5.86255 14.0794 5.60498 14.588C5.34742 15.0965 5.212 15.6581 5.2095 16.2281" stroke="white" stroke-width="1.46614" stroke-linecap="round" stroke-linejoin="round"/>
<path d="M10.341 10.8635V12.0554C10.3437 12.3066 10.411 12.5529 10.5363 12.7706C10.6616 12.9883 10.8407 13.1701 11.0564 13.2987C11.5145 13.638 11.8871 14.0794 12.1447 14.588C12.4023 15.0965 12.5377 15.6581 12.5402 16.2281" stroke="white" stroke-width="1.46614" stroke-linecap="round" stroke-linejoin="round"/>
<path d="M13.2732 6.71438H14.3728C14.8589 6.71438 15.325 6.5213 15.6687 6.17761C16.0124 5.83391 16.2055 5.36777 16.2055 4.88171C16.2055 4.39566 16.0124 3.92951 15.6687 3.58582C15.325 3.24213 14.8589 3.04904 14.3728 3.04904H13.2732" stroke="white" stroke-width="1.46614" stroke-linecap="round" stroke-linejoin="round"/>
<path d="M3.01031 16.2442H14.7394" stroke="white" stroke-width="1.46614" stroke-linecap="round" stroke-linejoin="round"/>
<path d="M4.47647 6.71438C4.47647 7.88091 4.93987 8.99966 5.76474 9.82452C6.5896 10.6494 7.70835 11.1128 8.87488 11.1128C10.0414 11.1128 11.1602 10.6494 11.985 9.82452C12.8099 8.99966 13.2733 7.88091 13.2733 6.71438V2.31597C13.2733 2.12155 13.1961 1.93509 13.0586 1.79761C12.9211 1.66013 12.7346 1.5829 12.5402 1.5829H5.20954C5.01512 1.5829 4.82866 1.66013 4.69118 1.79761C4.5537 1.93509 4.47647 2.12155 4.47647 2.31597V6.71438Z" stroke="white" stroke-width="1.46614" stroke-linecap="round" stroke-linejoin="round"/>
<path d="M4.47646 6.71438H3.37686C2.89081 6.71438 2.42466 6.5213 2.08097 6.17761C1.73727 5.83391 1.54419 5.36777 1.54419 4.88171C1.54419 4.39566 1.73727 3.92951 2.08097 3.58582C2.42466 3.24213 2.89081 3.04904 3.37686 3.04904H4.47646" stroke="white" stroke-width="1.46614" stroke-linecap="round" stroke-linejoin="round"/>
</g>
</svg>
