<svg width="18" height="18" viewBox="0 0 18 18" fill="none" xmlns="http://www.w3.org/2000/svg">
<g opacity="0.6">
<path d="M8.87487 16.2443C12.9235 16.2443 16.2056 12.9622 16.2056 8.9136C16.2056 4.86497 12.9235 1.58292 8.87487 1.58292C4.82625 1.58292 1.54419 4.86497 1.54419 8.9136C1.54419 12.9622 4.82625 16.2443 8.87487 16.2443Z" stroke="white" stroke-width="1.46614" stroke-linecap="round" stroke-linejoin="round"/>
<path d="M8.87479 13.312C11.304 13.312 13.2732 11.3428 13.2732 8.91359C13.2732 6.48442 11.304 4.51518 8.87479 4.51518C6.44561 4.51518 4.47638 6.48442 4.47638 8.91359C4.47638 11.3428 6.44561 13.312 8.87479 13.312Z" stroke="white" stroke-width="1.46614" stroke-linecap="round" stroke-linejoin="round"/>
<path d="M8.87483 10.3797C9.68455 10.3797 10.341 9.72333 10.341 8.9136C10.341 8.10388 9.68455 7.44746 8.87483 7.44746C8.0651 7.44746 7.40869 8.10388 7.40869 8.9136C7.40869 9.72333 8.0651 10.3797 8.87483 10.3797Z" stroke="white" stroke-width="1.46614" stroke-linecap="round" stroke-linejoin="round"/>
</g>
</svg>
