<svg width="36" height="30" viewBox="0 0 36 30" fill="none" xmlns="http://www.w3.org/2000/svg">
<path d="M12 18.545C12 19.375 12.6806 20.05 13.5176 20.05H14.9977C15.0092 21.6785 16.3467 23 17.991 23C19.6353 23 20.9721 21.6786 20.9843 20.0507H22.4824C23.3194 20.0507 24 19.3757 24 18.5457C24 17.8807 23.5635 17.315 22.9592 17.1164V13.39C22.9592 11.4663 21.8155 9.7264 20.074 8.93207C20.0106 7.85636 19.1081 7 18.0083 7C16.9114 7 16.0103 7.85215 15.9441 8.92366C14.191 9.71366 13.0416 11.4571 13.0416 13.3894V17.1159C12.4365 17.3151 12.0001 17.8801 12.0001 18.5451L12 18.545ZM13.5176 18.1828H13.617C13.9353 18.1828 14.1932 17.9271 14.1932 17.6114V13.3892C14.1932 11.7956 15.2138 10.3691 16.7327 9.83921C16.9978 9.74706 17.1569 9.47849 17.1094 9.20349C17.1008 9.15349 17.0928 9.10277 17.0928 9.05063C17.0921 8.55062 17.5027 8.14278 18.0083 8.14278C18.5139 8.14278 18.9244 8.55064 18.9244 9.05136C18.9244 9.10493 18.9158 9.15707 18.9072 9.2085C18.8589 9.48279 19.0166 9.75137 19.2817 9.84494C20.7928 10.3785 21.8068 11.8035 21.8068 13.39V17.6122C21.8068 17.9279 22.0647 18.1836 22.383 18.1836H22.4824C22.6841 18.1836 22.8476 18.3457 22.8476 18.5457C22.8476 18.7458 22.6841 18.9079 22.4824 18.9079H13.5175C13.3158 18.9079 13.1523 18.745 13.1523 18.5457C13.1523 18.3457 13.3159 18.1828 13.5176 18.1828ZM17.9911 21.8571C16.982 21.8571 16.1617 21.0486 16.1502 20.0507H19.8321C19.8199 21.0486 19.0002 21.8571 17.9911 21.8571Z" fill="white" fill-opacity="0.8"/>
</svg>
