<svg width="36" height="30" viewBox="0 0 36 30" fill="none" xmlns="http://www.w3.org/2000/svg">
<path opacity="0.8" d="M24.476 12.9123V8.53571C24.476 7.68825 23.7863 7.00074 22.9411 7.00074L18.7618 7H11.535C10.6897 7 10 7.68973 10 8.53571V18.4174C10 19.2648 10.6897 19.9524 11.535 19.9524H18.9256C20.038 21.6555 21.4702 22.8341 21.5677 22.9144C21.6384 22.9717 21.7218 23 21.8081 23C21.8936 23 21.9777 22.9717 22.0484 22.9144C22.2113 22.7827 26 19.6666 26 16.1428C26 14.8437 25.4054 13.6824 24.476 12.9123ZM18.3808 7.762V10.4287L17.4664 9.74264C17.3979 9.6913 17.3176 9.66675 17.2379 9.66675C17.1576 9.66675 17.078 9.6913 17.0095 9.74264L16.0951 10.4287V7.762H18.3808ZM11.5349 19.1905C11.1086 19.1905 10.7618 18.8438 10.7618 18.4175V8.53579C10.7618 8.10944 11.1086 7.76272 11.5349 7.76272L15.3332 7.76198V11.1905C15.3332 11.3356 15.415 11.4666 15.5445 11.5313C15.674 11.596 15.828 11.5827 15.9426 11.4949L17.2379 10.5231L18.5333 11.4949C18.6003 11.5447 18.6821 11.5708 18.7618 11.5708C18.819 11.5708 18.8778 11.5574 18.9314 11.5306C19.0609 11.4658 19.1427 11.3342 19.1427 11.1898V7.76123H22.941C23.3673 7.76123 23.7141 8.10796 23.7141 8.5343V12.4109C23.1426 12.1177 22.4953 11.9518 21.8093 11.9518C19.499 11.9518 17.6188 13.832 17.6188 16.1422C17.6188 17.2204 17.9752 18.2605 18.4723 19.1898L11.5349 19.1905ZM21.8094 22.1147C21.3443 21.6973 20.2967 20.6861 19.4798 19.3981C19.4702 19.3788 19.459 19.3602 19.4456 19.3409C18.8459 18.3833 18.3809 17.2746 18.3809 16.143C18.3809 14.2516 19.9196 12.7144 21.8095 12.7144C23.6994 12.7144 25.238 14.2516 25.238 16.143C25.238 18.8214 22.6248 21.381 21.8094 22.1147ZM21.8094 14.6191C20.9693 14.6191 20.2856 15.3029 20.2856 16.1429C20.2856 16.983 20.9693 17.6667 21.8094 17.6667C22.6494 17.6667 23.3332 16.983 23.3332 16.1429C23.3332 15.3029 22.6494 14.6191 21.8094 14.6191ZM21.8094 16.9048C21.3882 16.9048 21.0475 16.564 21.0475 16.1429C21.0475 15.7218 21.3882 15.381 21.8094 15.381C22.2305 15.381 22.5713 15.7218 22.5713 16.1429C22.5713 16.564 22.2305 16.9048 21.8094 16.9048Z" fill="white"/>
</svg>
