<svg width="36" height="30" viewBox="0 0 36 30" fill="none" xmlns="http://www.w3.org/2000/svg">
<path d="M18 23C13.5862 23 10 19.4138 10 15C10 10.5862 13.5862 7 18 7C22.4138 7 26 10.5862 26 15C26 19.4138 22.4138 23 18 23ZM18 7.82759C14.0483 7.82759 10.8276 11.0483 10.8276 15C10.8276 18.9517 14.0483 22.1724 18 22.1724C21.9517 22.1724 25.1724 18.9517 25.1724 15C25.1724 11.0483 21.9517 7.82759 18 7.82759Z" fill="white" fill-opacity="0.8"/>
<path d="M18.6206 14.0483C19.9861 14.0483 20.9516 14.6414 20.7723 15.3724L19.9792 17.9035C19.7999 18.6345 19.0619 19.2276 18.3171 19.2276H17.6412C16.8964 19.2276 16.1585 18.6345 15.9861 17.9035L15.2137 15.3724C15.0412 14.6414 16.0137 14.0483 17.3792 14.0483H18.6206Z" fill="white" fill-opacity="0.8"/>
<path d="M18 10.0759C18.9103 10.0759 19.6483 10.8207 19.6483 11.731C19.6483 12.6483 18.9103 13.3862 18 13.3862C17.0896 13.3862 16.3586 12.6414 16.3586 11.731C16.3517 10.8138 17.0896 10.0759 18 10.0759Z" fill="white" fill-opacity="0.8"/>
</svg>
