<svg width="30" height="30" viewBox="0 0 30 30" fill="none" xmlns="http://www.w3.org/2000/svg">
<path d="M15 20C16.1046 20 17 19.1046 17 18C17 16.8954 16.1046 16 15 16C13.8954 16 13 16.8954 13 18C13 19.1046 13.8954 20 15 20Z" fill="white" fill-opacity="0.8"/>
<path d="M19 13V11C19 8.791 17.209 7 15 7C12.791 7 11 8.791 11 11V13C9.8955 13 9 13.8955 9 15V21C9 22.1045 9.8955 23 11 23H19C20.1045 23 21 22.1045 21 21V15C21 13.8955 20.1045 13 19 13ZM12 11C12 9.34325 13.3433 8 15 8C16.6567 8 18 9.34325 18 11V13H12V11ZM20 21C20 21.5523 19.5523 22 19 22H11C10.4477 22 10 21.5523 10 21V15C10 14.4477 10.4477 14 11 14H19C19.5523 14 20 14.4477 20 15V21Z" fill="white" fill-opacity="0.8"/>
</svg>
