<svg width="16" height="16" viewBox="0 0 16 16" fill="none" xmlns="http://www.w3.org/2000/svg">
<path d="M7.50338 4.11753H11.2054C11.267 4.11753 11.326 4.09285 11.3695 4.04891C11.4131 4.00497 11.4375 3.94537 11.4375 3.88323C11.4375 3.82109 11.4131 3.76149 11.3695 3.71755C11.326 3.67361 11.267 3.64893 11.2054 3.64893H7.50338C7.44181 3.64893 7.38277 3.67361 7.33923 3.71755C7.2957 3.76149 7.27124 3.82109 7.27124 3.88323C7.27124 3.94537 7.2957 4.00497 7.33923 4.04891C7.38277 4.09285 7.44181 4.11753 7.50338 4.11753Z" fill="#B30038"/>
<path d="M7.50338 5.7241H11.2054C11.267 5.7241 11.326 5.69941 11.3695 5.65547C11.4131 5.61153 11.4375 5.55194 11.4375 5.4898C11.4375 5.42766 11.4131 5.36806 11.3695 5.32412C11.326 5.28018 11.267 5.25549 11.2054 5.25549H7.50338C7.44181 5.25549 7.38277 5.28018 7.33923 5.32412C7.2957 5.36806 7.27124 5.42766 7.27124 5.4898C7.27124 5.55194 7.2957 5.61153 7.33923 5.65547C7.38277 5.69941 7.44181 5.7241 7.50338 5.7241Z" fill="#B30038"/>
<path d="M12.0982 10.1759H3.83319C3.77162 10.1759 3.71257 10.2006 3.66904 10.2445C3.6255 10.2885 3.60104 10.3481 3.60104 10.4102C3.60104 10.4723 3.6255 10.5319 3.66904 10.5759C3.71257 10.6198 3.77162 10.6445 3.83319 10.6445H12.0982C12.1597 10.6445 12.2188 10.6198 12.2623 10.5759C12.3059 10.5319 12.3303 10.4723 12.3303 10.4102C12.3303 10.3481 12.3059 10.2885 12.2623 10.2445C12.2188 10.2006 12.1597 10.1759 12.0982 10.1759Z" fill="#B30038"/>
<path d="M12.0982 11.6822H3.83319C3.77162 11.6822 3.71257 11.7069 3.66904 11.7508C3.6255 11.7948 3.60104 11.8544 3.60104 11.9165C3.60104 11.9786 3.6255 12.0382 3.66904 12.0822C3.71257 12.1261 3.77162 12.1508 3.83319 12.1508H12.0982C12.1597 12.1508 12.2188 12.1261 12.2623 12.0822C12.3059 12.0382 12.3303 11.9786 12.3303 11.9165C12.3303 11.8544 12.3059 11.7948 12.2623 11.7508C12.2188 11.7069 12.1597 11.6822 12.0982 11.6822Z" fill="#B30038"/>
<path d="M1.43351 16H1.435L13.5678 15.9608C13.6825 15.9603 13.7923 15.914 13.8732 15.8321C13.9542 15.7501 13.9998 15.6391 14 15.5234V0.234314C14 0.191743 13.9885 0.149976 13.9668 0.1135C13.945 0.0770232 13.9138 0.047216 13.8766 0.0272801C13.8393 0.00734411 13.7974 -0.00196724 13.7552 0.00034632C13.7131 0.00265988 13.6724 0.0165109 13.6375 0.0404115L12.9856 0.486759L12.3336 0.0404115C12.2952 0.0140851 12.2498 1.14022e-05 12.2033 1.14022e-05C12.1569 1.14022e-05 12.1115 0.0140851 12.073 0.0404115L11.4211 0.486725L10.7693 0.0406123C10.7309 0.0142598 10.6855 0.00017037 10.639 0.00017037C10.5925 0.00017037 10.5471 0.0142598 10.5087 0.0406123L9.85688 0.486725L9.20509 0.0406123C9.16665 0.0142598 9.12125 0.00017037 9.07477 0.00017037C9.0283 0.00017037 8.9829 0.0142598 8.94446 0.0406123L8.2926 0.486725L7.64108 0.0406123C7.60262 0.0142715 7.55721 0.000189523 7.51073 0.000189523C7.46425 0.000189523 7.41884 0.0142715 7.38038 0.0406123L6.72879 0.486725L6.07706 0.0406123C6.03861 0.0142787 5.9932 0.000200887 5.94673 0.000200887C5.90026 0.000200887 5.85486 0.0142787 5.8164 0.0406123L5.16468 0.486725L4.51302 0.0406123C4.47455 0.0142643 4.42914 0.000178223 4.38265 0.000178223C4.33617 0.000178223 4.29075 0.0142643 4.25229 0.0406123L3.60063 0.486893L2.94891 0.0406123C2.91045 0.0142715 2.86504 0.000189523 2.81856 0.000189523C2.77208 0.000189523 2.72667 0.0142715 2.68821 0.0406123L2.03658 0.486725L1.38469 0.0406123C1.34982 0.0167292 1.30915 0.0028806 1.26707 0.000552021C1.22498 -0.00177656 1.18307 0.00750275 1.14581 0.0273945C1.10855 0.0472863 1.07737 0.07704 1.05559 0.113464C1.03382 0.149888 1.02228 0.191607 1.02222 0.234147L1 15.5628C1.00001 15.6202 1.01123 15.6771 1.03302 15.7302C1.05482 15.7832 1.08675 15.8314 1.12701 15.872C1.16727 15.9126 1.21506 15.9448 1.26765 15.9668C1.32024 15.9888 1.3766 16 1.43351 16ZM1.48597 0.676009L1.90625 0.963867C1.94471 0.990208 1.99012 1.00429 2.0366 1.00429C2.08308 1.00429 2.12849 0.990208 2.16695 0.963867L2.81857 0.517586L3.47027 0.963766C3.50873 0.990115 3.55414 1.0042 3.60063 1.0042C3.64712 1.0042 3.69253 0.990115 3.731 0.963766L4.38265 0.517486L5.03431 0.963766C5.07277 0.990115 5.11819 1.0042 5.16468 1.0042C5.21116 1.0042 5.25658 0.990115 5.29504 0.963766L5.94673 0.517453L6.59842 0.963766C6.63689 0.990115 6.6823 1.0042 6.72879 1.0042C6.77527 1.0042 6.82069 0.990115 6.85915 0.963766L7.51071 0.517486L8.16237 0.963766C8.20083 0.9901 8.24623 1.00418 8.2927 1.00418C8.33917 1.00418 8.38458 0.9901 8.42303 0.963766L9.07476 0.517453L9.72658 0.963766C9.76504 0.990093 9.81043 1.00417 9.8569 1.00417C9.90336 1.00417 9.94876 0.990093 9.98721 0.963766L10.639 0.517453L11.2908 0.963766C11.3293 0.990093 11.3747 1.00417 11.4211 1.00417C11.4676 1.00417 11.513 0.990093 11.5515 0.963766L12.2033 0.517453L12.8552 0.963766C12.8937 0.9901 12.9391 1.00418 12.9856 1.00418C13.032 1.00418 13.0774 0.9901 13.1159 0.963766L13.5357 0.676377V15.4925L1.46429 15.5317L1.48597 0.676009Z" fill="#B30038"/>
<path d="M12.0982 13.3223H3.83319C3.77162 13.3223 3.71257 13.347 3.66904 13.3909C3.6255 13.4348 3.60104 13.4944 3.60104 13.5566C3.60104 13.6187 3.6255 13.6783 3.66904 13.7222C3.71257 13.7662 3.77162 13.7909 3.83319 13.7909H12.0982C12.1597 13.7909 12.2188 13.7662 12.2623 13.7222C12.3059 13.6783 12.3303 13.6187 12.3303 13.5566C12.3303 13.4944 12.3059 13.4348 12.2623 13.3909C12.2188 13.347 12.1597 13.3223 12.0982 13.3223Z" fill="#B30038"/>
<path d="M7.50338 7.3643H11.2054C11.267 7.3643 11.326 7.33961 11.3695 7.29567C11.4131 7.25173 11.4375 7.19214 11.4375 7.12999C11.4375 7.06785 11.4131 7.00826 11.3695 6.96432C11.326 6.92038 11.267 6.89569 11.2054 6.89569H7.50338C7.44181 6.89569 7.38277 6.92038 7.33923 6.96432C7.2957 7.00826 7.27124 7.06785 7.27124 7.12999C7.27124 7.19214 7.2957 7.25173 7.33923 7.29567C7.38277 7.33961 7.44181 7.3643 7.50338 7.3643Z" fill="#B30038"/>
<path d="M7.50338 9.00437H11.2054C11.267 9.00437 11.326 8.97969 11.3695 8.93575C11.4131 8.89181 11.4375 8.83221 11.4375 8.77007C11.4375 8.70793 11.4131 8.64833 11.3695 8.60439C11.326 8.56045 11.267 8.53577 11.2054 8.53577H7.50338C7.44181 8.53577 7.38277 8.56045 7.33923 8.60439C7.2957 8.64833 7.27124 8.70793 7.27124 8.77007C7.27124 8.83221 7.2957 8.89181 7.33923 8.93575C7.38277 8.97969 7.44181 9.00437 7.50338 9.00437Z" fill="#B30038"/>
<path d="M5.01042 9.01218C5.04365 9.01224 5.0765 9.00507 5.10674 8.99117C5.13698 8.97726 5.16391 8.95695 5.18568 8.93162C5.20568 8.90868 5.22096 8.88197 5.23064 8.85302C5.24032 8.82408 5.24421 8.79349 5.24208 8.76301C5.23995 8.73254 5.23185 8.7028 5.21824 8.67551C5.20463 8.64822 5.18578 8.62394 5.1628 8.60406L3.51797 7.16343H4.02275C4.40372 7.16156 4.77147 7.02218 5.05949 6.77048C5.34752 6.51879 5.53681 6.17138 5.59316 5.79109H6.06716C6.12873 5.79109 6.18778 5.7664 6.23131 5.72246C6.27485 5.67852 6.29931 5.61892 6.29931 5.55678C6.29931 5.49464 6.27485 5.43505 6.23131 5.39111C6.18778 5.34717 6.12873 5.32248 6.06716 5.32248H5.59293C5.54069 4.98112 5.38346 4.66498 5.14347 4.41874H6.06716C6.12873 4.41874 6.18778 4.39406 6.23131 4.35011C6.27485 4.30617 6.29931 4.24658 6.29931 4.18444C6.29931 4.1223 6.27485 4.0627 6.23131 4.01876C6.18778 3.97482 6.12873 3.95013 6.06716 3.95013H2.89722C2.83565 3.95013 2.7766 3.97482 2.73307 4.01876C2.68953 4.0627 2.66508 4.1223 2.66508 4.18444C2.66508 4.24658 2.68953 4.30617 2.73307 4.35011C2.7766 4.39406 2.83565 4.41874 2.89722 4.41874H4.02275C4.56215 4.41874 5.0138 4.8204 5.12141 5.32248H2.89722C2.83565 5.32248 2.7766 5.34717 2.73307 5.39111C2.68953 5.43505 2.66508 5.49464 2.66508 5.55678C2.66508 5.61892 2.68953 5.67852 2.73307 5.72246C2.7766 5.7664 2.83565 5.79109 2.89722 5.79109H5.12188C5.01496 6.29316 4.56284 6.69483 4.02275 6.69483H2.89722C2.85015 6.69415 2.80402 6.70812 2.7651 6.73485C2.72619 6.76158 2.69637 6.79976 2.67972 6.8442C2.66307 6.88863 2.66039 6.93717 2.67205 6.9832C2.68371 7.02923 2.70913 7.07052 2.74487 7.10144L4.85816 8.95545C4.90043 8.99236 4.95453 9.01252 5.01042 9.01218Z" fill="#B30038"/>
</svg>
