<svg width="18" height="18" viewBox="0 0 18 18" fill="none" xmlns="http://www.w3.org/2000/svg">
<g clip-path="url(#clip0_223_1050)">
<path d="M11.4874 16.748V10.1504C11.4874 9.93165 11.3956 9.72188 11.2323 9.56722C11.069 9.41256 10.8475 9.32567 10.6165 9.32567H7.13315C6.90218 9.32567 6.68068 9.41256 6.51736 9.56722C6.35405 9.72188 6.2623 9.93165 6.2623 10.1504V16.748" stroke="white" stroke-width="1.6494" stroke-linecap="round" stroke-linejoin="round"/>
<path d="M1.0372 7.67632C1.03714 7.43638 1.09236 7.19933 1.19899 6.98168C1.30563 6.76404 1.46113 6.57105 1.65463 6.41617L7.75058 1.46879C8.06495 1.21718 8.46325 1.07913 8.87485 1.07913C9.28645 1.07913 9.68476 1.21718 9.99912 1.46879L16.0951 6.41617C16.2886 6.57105 16.4441 6.76404 16.5507 6.98168C16.6573 7.19933 16.7126 7.43638 16.7125 7.67632V15.0986C16.7125 15.5361 16.529 15.9556 16.2024 16.2649C15.8757 16.5743 15.4327 16.748 14.9708 16.748H2.7789C2.31697 16.748 1.87397 16.5743 1.54733 16.2649C1.2207 15.9556 1.0372 15.5361 1.0372 15.0986V7.67632Z" stroke="white" stroke-width="1.6494" stroke-linecap="round" stroke-linejoin="round"/>
</g>
<defs>
<clipPath id="clip0_223_1050">
<rect width="18" height="18" fill="white"/>
</clipPath>
</defs>
</svg>
