<svg width="18" height="18" viewBox="0 0 18 18" fill="none" xmlns="http://www.w3.org/2000/svg">
<path d="M8.8749 16.2443C12.9235 16.2443 16.2056 12.9622 16.2056 8.91358C16.2056 4.86496 12.9235 1.5829 8.8749 1.5829C4.82628 1.5829 1.54422 4.86496 1.54422 8.91358C1.54422 12.9622 4.82628 16.2443 8.8749 16.2443Z" stroke="white" stroke-width="1.46614" stroke-linecap="round" stroke-linejoin="round"/>
<path d="M8.87482 13.312C11.304 13.312 13.2732 11.3428 13.2732 8.91358C13.2732 6.4844 11.304 4.51517 8.87482 4.51517C6.44564 4.51517 4.47641 6.4844 4.47641 8.91358C4.47641 11.3428 6.44564 13.312 8.87482 13.312Z" stroke="white" stroke-width="1.46614" stroke-linecap="round" stroke-linejoin="round"/>
<path d="M8.87486 10.3797C9.68458 10.3797 10.341 9.72331 10.341 8.91359C10.341 8.10386 9.68458 7.44745 8.87486 7.44745C8.06513 7.44745 7.40872 8.10386 7.40872 8.91359C7.40872 9.72331 8.06513 10.3797 8.87486 10.3797Z" stroke="white" stroke-width="1.46614" stroke-linecap="round" stroke-linejoin="round"/>
</svg>
