<svg width="18" height="18" viewBox="0 0 18 18" fill="none" xmlns="http://www.w3.org/2000/svg">
<path d="M14.3285 5.33213V2.83303C14.3285 2.6121 14.2407 2.40021 14.0845 2.24399C13.9283 2.08777 13.7164 2 13.4955 2H2.66606C2.2242 2 1.80043 2.17553 1.48798 2.48798C1.17553 2.80043 1 3.2242 1 3.66606C1 4.10793 1.17553 4.5317 1.48798 4.84415C1.80043 5.1566 2.2242 5.33213 2.66606 5.33213H15.1615C15.3825 5.33213 15.5944 5.41989 15.7506 5.57612C15.9068 5.73234 15.9946 5.94423 15.9946 6.16516V9.49729M15.9946 9.49729H13.4955C13.0536 9.49729 12.6298 9.67282 12.3174 9.98527C12.0049 10.2977 11.8294 10.7215 11.8294 11.1634C11.8294 11.6052 12.0049 12.029 12.3174 12.3414C12.6298 12.6539 13.0536 12.8294 13.4955 12.8294H15.9946C16.2155 12.8294 16.4274 12.7416 16.5836 12.5854C16.7398 12.4292 16.8276 12.2173 16.8276 11.9964V10.3303C16.8276 10.1094 16.7398 9.8975 16.5836 9.74128C16.4274 9.58505 16.2155 9.49729 15.9946 9.49729Z" stroke="white" stroke-width="1.66606" stroke-linecap="round" stroke-linejoin="round"/>
<path d="M1 3.66608V15.3285C1 15.7704 1.17553 16.1942 1.48798 16.5066C1.80043 16.8191 2.2242 16.9946 2.66606 16.9946H15.1615C15.3825 16.9946 15.5944 16.9068 15.7506 16.7506C15.9068 16.5944 15.9946 16.3825 15.9946 16.1616V12.8294" stroke="white" stroke-width="1.66606" stroke-linecap="round" stroke-linejoin="round"/>
</svg>
