<svg width="18" height="18" viewBox="0 0 18 18" fill="none" xmlns="http://www.w3.org/2000/svg">
<path d="M7.40874 10.8635V12.0554C7.40597 12.3066 7.33872 12.5528 7.21343 12.7706C7.08815 12.9883 6.90903 13.1701 6.69326 13.2987C6.2352 13.638 5.86258 14.0794 5.60501 14.5879C5.34745 15.0965 5.21203 15.658 5.20953 16.2281" stroke="white" stroke-width="1.46614" stroke-linecap="round" stroke-linejoin="round"/>
<path d="M10.341 10.8635V12.0554C10.3438 12.3066 10.411 12.5528 10.5363 12.7706C10.6616 12.9883 10.8407 13.1701 11.0565 13.2987C11.5145 13.638 11.8872 14.0794 12.1447 14.5879C12.4023 15.0965 12.5377 15.658 12.5402 16.2281" stroke="white" stroke-width="1.46614" stroke-linecap="round" stroke-linejoin="round"/>
<path d="M13.2733 6.71437H14.3729C14.8589 6.71437 15.3251 6.52128 15.6688 6.17759C16.0124 5.8339 16.2055 5.36775 16.2055 4.8817C16.2055 4.39564 16.0124 3.9295 15.6688 3.5858C15.3251 3.24211 14.8589 3.04903 14.3729 3.04903H13.2733" stroke="white" stroke-width="1.46614" stroke-linecap="round" stroke-linejoin="round"/>
<path d="M3.01035 16.2442H14.7394" stroke="white" stroke-width="1.46614" stroke-linecap="round" stroke-linejoin="round"/>
<path d="M4.4765 6.71436C4.4765 7.88089 4.9399 8.99965 5.76477 9.82451C6.58963 10.6494 7.70838 11.1128 8.87491 11.1128C10.0414 11.1128 11.1602 10.6494 11.9851 9.82451C12.8099 8.99965 13.2733 7.88089 13.2733 6.71436V2.31595C13.2733 2.12153 13.1961 1.93507 13.0586 1.7976C12.9211 1.66012 12.7347 1.58289 12.5403 1.58289H5.20957C5.01515 1.58289 4.82869 1.66012 4.69121 1.7976C4.55374 1.93507 4.4765 2.12153 4.4765 2.31595V6.71436Z" stroke="white" stroke-width="1.46614" stroke-linecap="round" stroke-linejoin="round"/>
<path d="M4.47649 6.71437H3.37689C2.89084 6.71437 2.42469 6.52128 2.081 6.17759C1.7373 5.8339 1.54422 5.36775 1.54422 4.8817C1.54422 4.39564 1.7373 3.9295 2.081 3.5858C2.42469 3.24211 2.89084 3.04903 3.37689 3.04903H4.47649" stroke="white" stroke-width="1.46614" stroke-linecap="round" stroke-linejoin="round"/>
</svg>
