<svg width="30" height="30" viewBox="0 0 30 30" fill="none" xmlns="http://www.w3.org/2000/svg">
<path d="M22.9072 18.7074C22.8331 18.6213 22.7233 18.5706 22.6083 18.5706H22.1536C22.0821 17.9648 22.1025 17.3591 22.2124 16.8548C22.2558 16.6697 22.1536 16.4822 21.9722 16.4214C21.7653 16.3504 21.5533 16.287 21.3438 16.2389C20.4829 16.0336 19.5683 16.0057 18.7049 16.1603C17.7673 16.3251 16.8145 16.6495 15.7952 17.1513C16.1937 16.2794 16.8477 15.5216 17.6549 15.0021C18.3779 14.5408 19.249 14.2468 20.1125 14.1809C20.2172 14.1733 20.3015 14.1024 20.3245 14.001C20.35 13.8996 20.3066 13.7982 20.2172 13.745C19.811 13.4966 19.4406 13.2001 19.1187 12.8656C19.0625 12.8047 18.9808 12.7794 18.9041 12.7946C17.844 12.9771 16.8758 13.5245 16.1733 14.333C15.5576 15.0452 15.1718 15.9373 15.0748 16.8674C14.8985 16.3327 14.7197 15.9221 14.5076 15.5571C14.1602 14.9539 13.7081 14.4825 13.1971 14.1911C12.4461 13.7602 11.6082 13.7323 11.0359 13.783C10.5148 13.8286 10.009 13.9731 9.48783 14.2215C9.39076 14.2671 9.33711 14.3659 9.34988 14.4699C9.36266 14.5738 9.4393 14.6523 9.54148 14.6701C10.4867 14.845 11.4089 15.1237 12.2826 15.4988C12.8139 15.7269 13.1971 15.9373 13.519 16.1831C13.823 16.4163 14.0938 16.7179 14.2777 17.0322C13.6238 16.6469 12.8446 16.5253 12.1574 16.4442C11.9224 16.4163 11.6771 16.391 11.4063 16.3681C10.4075 16.287 9.32434 16.2693 8.09302 16.3175C7.98572 16.3225 7.88354 16.3707 7.81712 16.4543C7.74559 16.538 7.71749 16.6495 7.73281 16.7585C7.77113 17.0119 7.79668 17.2577 7.8069 17.4909C7.82734 17.8533 7.82478 18.2132 7.79923 18.568H7.39305C7.27809 18.568 7.16825 18.6187 7.09416 18.7049C7.02008 18.7911 6.98687 18.9077 7.00475 19.0217C7.03541 19.2067 7.20912 19.3461 7.40838 19.3461H13.6212C13.7004 19.3461 13.7745 19.3765 13.8256 19.4272C14.1909 19.7972 14.6405 20 15.0952 20L15.1514 19.9975C15.5755 19.9823 15.9791 19.7871 16.2908 19.445C16.3495 19.3816 16.4338 19.3436 16.5232 19.3436H22.5904C22.7897 19.3436 22.9634 19.2042 22.9941 19.0192C23.0145 18.9077 22.9813 18.7936 22.9072 18.7074ZM22.0514 16.8167C21.9365 17.3338 21.916 17.9522 21.9876 18.568H16.1809C16.0481 18.568 15.928 18.6339 15.8488 18.748C15.8335 18.7733 15.8156 18.7961 15.7901 18.8291C15.6036 19.0775 15.3711 19.2118 15.1233 19.2219C14.8474 19.2295 14.5587 19.0825 14.3109 18.8012C14.2982 18.7885 14.288 18.7733 14.2752 18.7581L14.2394 18.715C14.1628 18.6213 14.0478 18.568 13.9252 18.568H7.96784C7.99339 18.2107 7.99594 17.8457 7.97295 17.4808C7.96018 17.2425 7.93463 16.9916 7.89631 16.7331C7.88609 16.6697 7.90397 16.6064 7.94485 16.5582C7.98317 16.5101 8.03937 16.4847 8.10068 16.4822C9.32434 16.434 10.4024 16.4518 11.3936 16.5329C11.6618 16.5557 11.9045 16.581 12.137 16.6089C12.8625 16.6976 13.6902 16.8269 14.3442 17.2729C14.3876 17.3008 14.4412 17.2983 14.4821 17.2653C14.523 17.2324 14.5357 17.1792 14.5128 17.1285C14.3186 16.7331 13.9942 16.3403 13.6161 16.0539C13.2814 15.8004 12.8906 15.5825 12.3439 15.3493C11.4574 14.9691 10.5225 14.6853 9.56703 14.5104C9.52104 14.5028 9.51083 14.4648 9.50827 14.4496C9.50572 14.4217 9.51338 14.3862 9.5517 14.3685C10.055 14.1277 10.5429 13.9883 11.0436 13.9452C11.5928 13.8971 12.395 13.9224 13.1077 14.333C13.5931 14.6093 14.0248 15.0604 14.3569 15.6382C14.5945 16.0463 14.7912 16.5177 14.9905 17.164C15.0084 17.2172 15.0594 17.2501 15.1156 17.2425C15.1718 17.2349 15.2102 17.1918 15.2153 17.1335C15.2613 16.1451 15.6445 15.1896 16.2933 14.4394C16.9601 13.669 17.9206 13.1291 18.9297 12.9543C18.9501 12.9492 18.9757 12.9593 18.9935 12.9771C19.3256 13.3243 19.7063 13.6284 20.1252 13.8844C20.1661 13.9097 20.161 13.9503 20.1584 13.963C20.1559 13.9756 20.1431 14.0137 20.0946 14.0187C19.2056 14.0872 18.3064 14.3888 17.5604 14.8652C16.6893 15.4253 15.9868 16.2592 15.5831 17.2121C15.5653 17.2577 15.5755 17.3084 15.6138 17.3414C15.6496 17.3743 15.7032 17.3794 15.7441 17.3566C16.794 16.8269 17.7699 16.4873 18.7304 16.32C19.5734 16.1705 20.4624 16.1958 21.3004 16.396C21.5047 16.4442 21.7117 16.505 21.9109 16.5734C22.0182 16.6089 22.0744 16.7128 22.0514 16.8167Z" fill="white" fill-opacity="0.8"/>
<path d="M10.8801 11.7555L11.7333 12.0647C11.7666 12.0773 11.7895 12.1027 11.7998 12.1356L12.0271 13.0075C12.0476 13.0937 12.1574 13.1139 12.2111 13.0455L12.7705 12.3359C12.791 12.3105 12.8267 12.2953 12.8625 12.2978L13.7668 12.3511C13.8537 12.3587 13.9099 12.2598 13.8588 12.1889L13.4373 11.5679L13.353 11.4437C13.3325 11.4159 13.33 11.3778 13.3428 11.3474L13.6749 10.5085C13.7081 10.4274 13.6314 10.3463 13.5471 10.3691L12.6734 10.6175C12.6402 10.6276 12.6045 10.62 12.5789 10.5972L11.879 10.0245C11.8125 9.9687 11.7078 10.0143 11.7052 10.1005L11.6746 11.0002C11.672 11.0357 11.6542 11.0661 11.6261 11.0838L11.2735 11.3069L10.8597 11.5679C10.7856 11.6161 10.7984 11.7251 10.8801 11.7555Z" fill="white" fill-opacity="0.8"/>
<path d="M16.2066 12.0241C16.2194 12.0419 16.2219 12.0647 16.2143 12.085L16.1529 12.2446L16.0099 12.6172C15.9894 12.6679 16.038 12.7186 16.0916 12.7034L16.6409 12.5386C16.6613 12.531 16.6843 12.5361 16.7022 12.5513L17.1492 12.9087C17.1927 12.9441 17.2565 12.9137 17.2591 12.8605L17.2719 12.2903C17.2719 12.27 17.2846 12.2497 17.3025 12.237L17.7828 11.9253C17.8288 11.8949 17.8211 11.8265 17.7675 11.8087L17.5759 11.7428L17.2259 11.6212C17.2054 11.6136 17.1901 11.5984 17.185 11.5781L17.0343 11.0281C17.019 10.9749 16.95 10.9622 16.9168 11.0053L16.5668 11.4539C16.554 11.4691 16.531 11.4792 16.5106 11.4792L15.9384 11.4514C15.8822 11.4488 15.8489 11.5096 15.8796 11.5553L16.2066 12.0241Z" fill="white" fill-opacity="0.8"/>
<path d="M13.0823 12.6653C13.8001 13.4637 14.38 14.366 14.8041 15.3468C14.541 14.3051 13.9227 13.3446 13.0823 12.6653Z" fill="white" fill-opacity="0.8"/>
<path d="M13.8767 12.5994C14.2063 12.9999 14.4975 13.3851 14.7683 13.8286C14.661 13.3217 14.3161 12.8681 13.8767 12.5994Z" fill="white" fill-opacity="0.8"/>
<path d="M15.126 15.6129C15.3636 14.6346 15.7519 13.6994 16.3318 12.8681C15.6139 13.5955 15.1924 14.6017 15.126 15.6129Z" fill="white" fill-opacity="0.8"/>
<path d="M16.0378 14.1759C16.232 13.821 16.4287 13.5169 16.6637 13.1874C16.3137 13.3851 16.0634 13.7729 16.0378 14.1759Z" fill="white" fill-opacity="0.8"/>
<path d="M21.1087 17.0524C19.3869 16.5455 17.4173 16.8852 15.9663 17.9369C17.5016 17.0347 19.3537 16.7179 21.1087 17.0524Z" fill="white" fill-opacity="0.8"/>
<path d="M17.2666 18.0231C18.5746 17.6404 19.9796 17.6506 21.2825 18.051C20.0307 17.4833 18.5235 17.4731 17.2666 18.0231Z" fill="white" fill-opacity="0.8"/>
<path d="M8.77246 17.1108C10.5479 16.8396 12.3872 17.1386 13.9839 17.9573C12.4664 16.9866 10.5224 16.6698 8.77246 17.1108Z" fill="white" fill-opacity="0.8"/>
<path d="M9.16602 17.8483C10.3105 17.7595 11.4549 17.8128 12.5841 18.0079C11.4933 17.6455 10.29 17.5897 9.16602 17.8483Z" fill="white" fill-opacity="0.8"/>
</svg>
