<svg width="36" height="30" viewBox="0 0 36 30" fill="none" xmlns="http://www.w3.org/2000/svg">
<path d="M21.975 9.6398C22.2222 9.83022 22.4694 10.0206 22.6787 10.2301C22.8879 10.4395 23.0971 10.6871 23.2873 10.9156L23.3063 10.9346C23.3253 10.9727 23.3633 10.9918 23.4014 10.9918C23.4394 11.0108 23.4965 11.0108 23.5345 10.9918L24.2762 10.7633C24.5425 10.6871 24.8278 10.7061 25.056 10.8204C25.2843 10.9346 25.4935 11.125 25.6076 11.3916L25.8738 12.001C25.988 12.2675 25.988 12.5341 25.8929 12.7817C25.8168 13.0292 25.6266 13.2577 25.3984 13.391L24.7137 13.7718C24.6756 13.7909 24.6376 13.8289 24.6186 13.867C24.5996 13.9051 24.5996 13.9622 24.5996 14.0003C24.6376 14.305 24.6566 14.6096 24.6756 14.9143C24.6756 15.219 24.6566 15.5236 24.6186 15.8283C24.6186 15.8854 24.6186 15.9235 24.6376 15.9616C24.6566 15.9997 24.6947 16.0378 24.7327 16.0568L25.4174 16.4376C25.6646 16.5709 25.8358 16.7804 25.9309 17.0279C26.026 17.2755 26.026 17.542 25.9119 17.8086L25.6646 18.418C25.5505 18.6845 25.3603 18.875 25.1321 18.9892C24.9039 19.1035 24.6186 19.1415 24.3523 19.0654L23.6106 18.8559C23.5535 18.8369 23.5155 18.8369 23.4775 18.8559C23.4394 18.875 23.4014 18.894 23.3633 18.9321C23.1731 19.1796 22.983 19.4272 22.7738 19.6366C22.5645 19.8461 22.3363 20.0555 22.0891 20.246L22.0701 20.265C22.032 20.3221 21.994 20.3602 21.994 20.3983C21.975 20.4364 21.975 20.4935 21.994 20.5316L22.2222 21.2742C22.2983 21.5408 22.2793 21.8264 22.1651 22.0549C22.051 22.2834 21.8608 22.4929 21.5946 22.6071L20.986 22.8737C20.7197 22.9879 20.4534 22.9879 20.2062 22.8927C19.959 22.8166 19.7307 22.6261 19.5976 22.3977L19.2172 21.7122C19.1982 21.655 19.1602 21.636 19.1221 21.6169C19.0841 21.5979 19.027 21.5979 18.989 21.5979C18.6847 21.636 18.3994 21.655 18.0761 21.6741C17.7718 21.6741 17.4675 21.655 17.1632 21.6169C17.1061 21.6169 17.0681 21.6169 17.03 21.636C16.992 21.655 16.954 21.6931 16.9349 21.7312L16.5355 22.4167C16.4024 22.6642 16.1932 22.8356 15.946 22.9308C15.6987 23.026 15.4134 23.026 15.1662 22.9118L14.5576 22.6642C14.2913 22.55 14.1011 22.3596 13.987 22.1311C13.8729 21.9026 13.8349 21.6169 13.9109 21.3504L14.1201 20.6077C14.1392 20.5506 14.1392 20.5125 14.1201 20.4745C14.1011 20.4364 14.0821 20.3983 14.0441 20.3602C13.7968 20.1698 13.5686 19.9794 13.3404 19.7699C13.1121 19.5605 12.9219 19.332 12.7318 19.0844C12.6937 19.0463 12.6557 19.0083 12.6176 18.9892C12.5796 18.9702 12.5225 18.9702 12.4845 18.9892L11.7238 19.1987C11.4575 19.2748 11.1722 19.2558 10.944 19.1415C10.7157 19.0273 10.5065 18.8369 10.3924 18.5703L10.1452 17.961C10.0311 17.6944 10.0311 17.4278 10.1071 17.1803C10.1832 16.9327 10.3734 16.7042 10.6207 16.5709L11.3053 16.1901C11.3434 16.1711 11.3814 16.133 11.4004 16.0949C11.4195 16.0568 11.4195 15.9997 11.4195 15.9616C11.3814 15.6569 11.3434 15.3713 11.3434 15.0476C11.3434 14.7429 11.3624 14.4383 11.4004 14.1336C11.4004 14.0765 11.4004 14.0384 11.3814 14.0003C11.3624 13.9622 11.3244 13.9242 11.2863 13.9051L10.5826 13.5243C10.3354 13.391 10.1642 13.1815 10.0691 12.934C9.97401 12.6865 9.97401 12.4008 10.0881 12.1533L10.3354 11.544C10.4305 11.2774 10.6397 11.087 10.8679 10.9727C11.0961 10.8585 11.3814 10.8204 11.6477 10.8965L12.3894 11.106C12.4465 11.125 12.4845 11.125 12.5225 11.106C12.5606 11.087 12.5986 11.0679 12.6367 11.0298C12.8269 10.7823 13.017 10.5538 13.2262 10.3253C13.4355 10.0968 13.6827 9.90638 13.9109 9.71597C13.949 9.67788 13.987 9.6398 13.987 9.60172C14.006 9.56363 14.006 9.50651 13.987 9.46843L13.7778 8.70676C13.7017 8.44018 13.7207 8.15456 13.8349 7.92606C13.949 7.69756 14.1392 7.4881 14.4054 7.37385L15.014 7.12631C15.2803 7.01206 15.5466 7.01206 15.7938 7.08823C16.0411 7.18344 16.2693 7.35481 16.4024 7.60235L16.7828 8.28785C16.8018 8.32593 16.8398 8.36401 16.8779 8.38306C16.9159 8.4021 16.973 8.4021 17.011 8.4021C17.3153 8.36401 17.6196 8.32593 17.9239 8.32593C18.2282 8.32593 18.5325 8.34497 18.8368 8.38306C18.8939 8.38306 18.9319 8.38306 18.97 8.36401C19.008 8.34497 19.046 8.30689 19.0651 8.26881L19.4454 7.58331C19.5786 7.33577 19.7878 7.1644 20.035 7.06919C20.2823 6.97398 20.5485 6.97398 20.8148 7.08823L21.4234 7.33577C21.6897 7.43098 21.8799 7.64044 21.994 7.86893C22.1081 8.09743 22.1461 8.38306 22.0701 8.64964L21.8608 9.39226C21.8418 9.44938 21.8418 9.48747 21.8608 9.52555C21.9179 9.56363 21.9369 9.60172 21.975 9.6398ZM22.0701 10.8394C21.8799 10.649 21.6707 10.4776 21.4614 10.3253C21.2713 10.192 21.1381 10.0016 21.0811 9.79213C21.005 9.58268 21.005 9.35418 21.062 9.14472L21.2713 8.4021C21.2903 8.34497 21.2903 8.28785 21.2522 8.23072C21.2332 8.1736 21.1952 8.13552 21.1381 8.11647L20.5295 7.86893C20.4725 7.84989 20.4154 7.84989 20.3583 7.86893C20.3013 7.88798 20.2633 7.92606 20.2252 7.98318L19.8639 8.66868C19.7497 8.87814 19.5976 9.03047 19.3884 9.12568C19.1982 9.22089 18.97 9.25897 18.7417 9.23993C18.4755 9.20184 18.2092 9.1828 17.9429 9.1828C17.6767 9.1828 17.4104 9.20184 17.1441 9.23993C16.9159 9.27801 16.6877 9.23993 16.4975 9.14472C16.3073 9.04951 16.1361 8.89718 16.022 8.68772L15.6417 8.00223C15.6036 7.9451 15.5656 7.90702 15.5085 7.88798C15.4515 7.86893 15.3944 7.86893 15.3373 7.88798C15.3373 7.88798 14.7858 8.11647 14.7478 8.15456C14.6907 8.1736 14.6527 8.21168 14.6146 8.26881C14.5956 8.32593 14.5956 8.38306 14.5956 8.44018L14.8238 9.1828C14.8809 9.4113 14.8809 9.6398 14.8238 9.83022C14.7478 10.0397 14.6336 10.2301 14.4435 10.3634C14.2343 10.5348 14.025 10.7061 13.8539 10.8965C13.6637 11.087 13.4925 11.2774 13.3404 11.5059C13.2072 11.6963 13.017 11.8296 12.8078 11.8867C12.5986 11.9629 12.3704 11.9629 12.1612 11.9057L11.4195 11.6963C11.3624 11.6772 11.3053 11.6963 11.2483 11.7153C11.1912 11.7344 11.1532 11.7725 11.1342 11.8296L10.8869 12.4389C10.8679 12.496 10.8679 12.5532 10.8869 12.6103C10.9059 12.6674 10.944 12.7055 11.001 12.7436L11.6857 13.1244C11.8949 13.2387 12.0471 13.391 12.1422 13.6004C12.2373 13.7909 12.2753 14.0194 12.2563 14.2479C12.2182 14.5144 12.1992 14.781 12.1992 15.0476C12.1992 15.3142 12.2182 15.5808 12.2563 15.8474C12.2943 16.0758 12.2563 16.3043 12.1612 16.4948C12.0661 16.6852 11.9139 16.8566 11.7047 16.9708L11.0201 17.3516C10.963 17.3707 10.925 17.4278 10.9059 17.4849C10.8869 17.542 10.8869 17.5992 10.9059 17.6563C10.9059 17.6563 11.1342 18.2085 11.1722 18.2656C11.1912 18.3228 11.2293 18.3608 11.2863 18.3799C11.3434 18.3989 11.4004 18.3989 11.4575 18.3989L12.1992 18.1704C12.4275 18.1133 12.6557 18.1133 12.8459 18.1704C13.0551 18.2275 13.2453 18.3608 13.3784 18.5513C13.5496 18.7607 13.7207 18.9702 13.9109 19.1415C14.1011 19.332 14.2913 19.5033 14.5195 19.6557C14.7097 19.789 14.8429 19.9794 14.8999 20.1888C14.957 20.3983 14.976 20.6268 14.9189 20.8553L14.7097 21.5979C14.6907 21.655 14.7097 21.7122 14.7287 21.7693C14.7478 21.8264 14.7858 21.8645 14.8429 21.8835L15.4515 22.1311C15.5085 22.1501 15.5656 22.1501 15.6226 22.1311C15.6797 22.112 15.7177 22.0739 15.7558 22.0168L16.1361 21.3313C16.2503 21.1409 16.4024 20.9695 16.6116 20.8743C16.8018 20.7791 17.03 20.741 17.2583 20.7601C17.5245 20.7982 17.7908 20.8172 18.0571 20.7982C18.3233 20.7982 18.5896 20.7791 18.8559 20.741C19.0841 20.7029 19.3123 20.741 19.5025 20.8362C19.6927 20.9314 19.8639 21.0838 19.978 21.2932L20.3583 21.9787C20.3774 22.0359 20.4344 22.0739 20.4915 22.0739C20.5485 22.093 20.6056 22.093 20.6627 22.0739C20.6627 22.0739 21.2142 21.8454 21.2713 21.8264C21.3283 21.8074 21.3664 21.7693 21.3854 21.7122C21.4044 21.655 21.4044 21.5979 21.4044 21.5408L21.1762 20.7982C21.1191 20.5697 21.1191 20.3602 21.1762 20.1507C21.2332 19.9603 21.3664 19.7699 21.5185 19.6366L21.5375 19.6176C21.7467 19.4462 21.9559 19.2748 22.1271 19.0844C22.2983 18.894 22.4885 18.6845 22.6406 18.4751C22.7738 18.2847 22.9639 18.1514 23.1731 18.0943C23.3824 18.0181 23.6106 18.0181 23.8388 18.0752L24.5806 18.2847C24.6376 18.3037 24.6947 18.3037 24.7517 18.2656C24.8088 18.2466 24.8468 18.2085 24.8658 18.1514L25.1131 17.542C25.1321 17.4849 25.1321 17.4278 25.1131 17.3707C25.0941 17.3136 25.056 17.2755 24.999 17.2374L24.3143 16.8756C24.1241 16.7613 23.9529 16.609 23.8578 16.3996C23.7627 16.2091 23.7247 15.9806 23.7437 15.7521C23.7818 15.4856 23.8008 15.219 23.7818 14.9524C23.7818 14.6858 23.7627 14.4192 23.7247 14.1527C23.6867 13.9242 23.7247 13.6957 23.8198 13.5052C23.9149 13.3148 24.067 13.1434 24.2762 13.0292L24.9609 12.6484C25.018 12.6103 25.056 12.5722 25.056 12.5151C25.075 12.458 25.075 12.4008 25.056 12.3437C25.056 12.3437 24.8278 11.7915 24.8088 11.7534C24.7898 11.6963 24.7517 11.6582 24.6947 11.6201C24.6376 11.6011 24.5806 11.6011 24.5235 11.6011L23.7818 11.8296C23.5535 11.8867 23.3443 11.8867 23.1351 11.8296C22.9449 11.7725 22.7547 11.6392 22.6216 11.4868L22.6026 11.4487C22.4314 11.2393 22.2602 11.0298 22.0701 10.8394ZM19.2552 11.9438C19.2362 11.9438 19.2172 11.9248 19.1982 11.9248C18.3614 11.6011 17.4865 11.6392 16.7067 11.9629C15.9269 12.2866 15.2803 12.9149 14.957 13.7528C14.6146 14.5906 14.6527 15.5046 14.976 16.2663C15.2993 17.047 15.9269 17.6944 16.7638 18.0371C17.6006 18.3799 18.5135 18.3418 19.2743 18.0181C20.035 17.6944 20.6817 17.0851 21.024 16.2472C21.024 16.2282 21.043 16.2091 21.043 16.1901C21.3664 15.3523 21.3283 14.4764 21.005 13.6957C20.6817 12.9149 20.0731 12.3056 19.2552 11.9438ZM19.5786 11.1441C20.6246 11.582 21.4044 12.3818 21.8038 13.3719C22.2222 14.3431 22.2602 15.4856 21.8418 16.5519C21.4044 17.6182 20.6056 18.3989 19.6166 18.8178C18.6276 19.2367 17.5055 19.2748 16.4404 18.8559C15.3754 18.418 14.5766 17.5992 14.1772 16.6281C13.7588 15.6569 13.7207 14.5335 14.1392 13.4672C14.1582 13.4481 14.1582 13.4291 14.1582 13.41C14.5956 12.3627 15.3944 11.582 16.3834 11.1822C17.3534 10.7633 18.4755 10.7252 19.5215 11.1441C19.5405 11.125 19.5596 11.1441 19.5786 11.1441Z" fill="white" fill-opacity="0.8"/>
</svg>
