<svg width="26" height="26" viewBox="0 0 26 26" fill="none" xmlns="http://www.w3.org/2000/svg">
<path d="M5.99988 1.00001C4.89513 1.00001 4 1.90002 4 2.99991V21.0002C4 22.1001 4.8955 23.0001 5.99988 23.0001H7.99975V25L10.4999 23.0001L13 25V23.0001H20.0001C21.1052 23.0001 22 22.1001 22 21.0002V20.0001C22 21.0999 21.1049 22 20.0001 22H13V20.0001H8.00012V22H6.50012C5.67175 22 5.00012 21.2998 5.00012 20.4999C5.00012 19.5999 5.67175 18.9999 6.50012 18.9999H20.0001C21.1052 18.9999 22 18.0999 22 17V2.99991C22 1.90002 21.1049 1.00001 20.0001 1.00001L5.99988 1.00001Z" fill="#9A91EE"/>
</svg>
