<svg width="26" height="26" viewBox="0 0 26 26" fill="none" xmlns="http://www.w3.org/2000/svg">
<path d="M17.6871 2.01337C17.5405 2.04344 17.4233 2.07352 17.306 2.13368C16.8956 2.31414 16.6024 2.61492 16.3678 2.97585C15.9867 3.54732 15.7522 4.17894 15.6056 4.87073C15.4004 5.56251 15.3124 6.25429 15.3124 6.94607C15.3124 7.307 15.3124 7.66793 15.3417 8.02886C15.371 8.60033 15.4297 8.93118 15.8694 9.65304C16.1333 10.1042 16.2799 10.5854 16.3678 11.0667C16.4265 11.4577 16.4851 11.8788 16.5144 12.2698C16.5144 12.2999 16.5437 12.2999 16.5731 12.3299C17.6285 12.4803 19.7687 12.7811 19.798 12.751C19.798 12.751 20.2964 11.2471 20.5896 10.3749C20.5896 10.3448 20.6189 10.3147 20.6189 10.3147C20.6775 10.014 20.7948 9.7132 20.8241 9.41242C20.8241 9.38234 20.8241 9.32219 20.8241 9.29211C20.8827 8.81087 20.912 8.35971 20.9707 7.87847C21 7.66793 21 7.48746 21 7.27692C21 7.21677 21 7.18669 21 7.12653C21 6.61522 20.9707 6.16406 20.8827 5.68282C20.8827 5.62266 20.8534 5.56251 20.8534 5.53243C20.7948 5.14142 20.7068 4.78049 20.6189 4.38949C20.4723 3.87817 20.2964 3.39693 20.0032 2.97585C19.6807 2.46453 19.2409 2.13368 18.6253 2.04344C18.4787 2.01337 18.3321 2.01337 18.2148 2.01337C17.9803 1.98329 17.8337 2.01337 17.6871 2.01337Z" fill="#CDF533"/>
<path d="M15.8108 15.8791C15.8401 16.5709 16.016 17.2025 16.4851 17.6837C16.8955 18.1048 17.3646 18.2853 17.9216 18.165C18.42 18.0747 18.7719 17.7439 19.065 17.3228C19.3875 16.8115 19.5634 16.2099 19.6221 15.6084C19.6807 15.0971 19.71 14.5557 19.6514 14.0444C19.6514 13.9842 19.6514 13.9541 19.6514 13.894C18.5373 13.7436 17.4526 13.5932 16.3092 13.4428C16.1919 13.7436 16.0746 14.0744 15.9867 14.4053C15.8694 14.8865 15.8108 15.3978 15.8108 15.8791Z" fill="#CDF533"/>
<path d="M5.34448 9.44252C5.13926 9.92376 5.05131 10.4351 5.02199 10.9765C4.99267 11.3675 4.99267 11.7585 5.02199 12.1495C5.02199 12.2096 5.02199 12.2698 5.02199 12.33C5.05131 12.8112 5.10994 13.2924 5.19789 13.7737C5.19789 13.8338 5.22721 13.8639 5.22721 13.9241C5.25653 14.1045 5.31516 14.3151 5.3738 14.4955C5.49107 14.9467 5.63765 15.3979 5.78424 15.849C5.78424 15.8791 5.81356 15.9092 5.81356 15.9693C5.90151 16.2701 6.0481 16.5408 6.19469 16.8115C6.19469 16.8416 6.224 16.8416 6.224 16.8717C6.66377 17.6837 7.45534 19.0372 7.45534 19.0372C7.48465 19.0673 9.50756 18.3154 10.5337 17.9544C10.563 17.9544 10.563 17.9244 10.563 17.8943C10.5337 17.4732 10.5044 17.0822 10.475 16.6611C10.4457 16.1498 10.5044 15.6385 10.6803 15.1572C10.9734 14.3451 10.9441 14.0444 10.8562 13.4428C10.7975 13.0819 10.7389 12.721 10.6509 12.3901C10.5044 11.6983 10.2698 11.0366 9.97664 10.405C9.68346 9.77337 9.33165 9.2019 8.83326 8.72066C8.51077 8.41989 8.15896 8.17927 7.74851 8.08904C7.60192 8.05896 7.48465 8.05896 7.33807 8.05896C7.19148 8.08904 7.04489 8.08904 6.8983 8.08904C6.75172 8.11911 6.63445 8.14919 6.48786 8.20935C5.93083 8.48004 5.57902 8.90113 5.34448 9.44252Z" fill="#CDF533"/>
<path d="M7.80716 20.3005C7.86579 20.8118 7.98306 21.3231 8.15897 21.8344C8.36419 22.4059 8.62805 22.9473 9.06781 23.3985C9.41962 23.7594 9.83006 24 10.3285 24C10.9148 24 11.3546 23.6992 11.6477 23.218C12.0289 22.6164 12.0582 21.9848 11.9409 21.293C11.853 20.8118 11.7064 20.3606 11.4718 19.9095C11.3253 19.6087 11.12 19.3079 10.9734 19.0372C9.8887 19.4282 8.86259 19.7892 7.80716 20.1802C7.80716 20.1802 7.80716 20.2403 7.80716 20.3005Z" fill="#CDF533"/>
</svg>
