<svg width="22" height="22" viewBox="0 0 22 22" fill="none" xmlns="http://www.w3.org/2000/svg">
<g filter="url(#filter0_d_222_949)">
<path d="M16.8711 7.30614C16.8734 6.66479 16.6211 6.04875 16.1697 5.59316C15.7183 5.13757 15.1046 4.87965 14.4632 4.87596H13.714V4.3C13.714 4.22044 13.6824 4.14413 13.6261 4.08787C13.5698 4.03161 13.4935 4 13.414 4C13.3344 4 13.2581 4.03161 13.2018 4.08787C13.1456 4.14413 13.114 4.22044 13.114 4.3V4.87596H7.75732V4.3C7.75732 4.22044 7.72572 4.14413 7.66946 4.08787C7.61319 4.03161 7.53689 4 7.45732 4C7.37776 4 7.30145 4.03161 7.24519 4.08787C7.18893 4.14413 7.15732 4.22044 7.15732 4.3V4.87596H6.43017C5.78587 4.87668 5.16816 5.13295 4.71257 5.58854C4.25698 6.04413 4.00072 6.66184 4 7.30614V14.3849C4.00071 15.0292 4.25697 15.6469 4.71256 16.1025C5.16814 16.5581 5.78586 16.8144 6.43017 16.8152H12.0405C12.6345 17.2264 13.3413 17.4434 14.0636 17.4364C15.0139 17.4354 15.925 17.0574 16.5969 16.3855C17.2689 15.7135 17.6469 14.8025 17.6479 13.8522C17.6476 13.0552 17.3734 12.2824 16.8711 11.6635V7.30614ZM6.43017 16.2152C5.94493 16.2146 5.47973 16.0216 5.13662 15.6784C4.79351 15.3353 4.60053 14.8701 4.6 14.3849V7.30614C4.60056 6.82092 4.79356 6.35573 5.13666 6.01263C5.47977 5.66952 5.94495 5.47652 6.43017 5.47596H7.15732V6.6827C7.15732 6.76227 7.18893 6.83857 7.24519 6.89483C7.30145 6.95109 7.37776 6.9827 7.45732 6.9827C7.53689 6.9827 7.61319 6.95109 7.66946 6.89483C7.72572 6.83857 7.75732 6.76227 7.75732 6.6827V5.47596H13.114V6.6827C13.114 6.76227 13.1456 6.83857 13.2018 6.89483C13.2581 6.95109 13.3344 6.9827 13.414 6.9827C13.4935 6.9827 13.5698 6.95109 13.6261 6.89483C13.6824 6.83857 13.714 6.76227 13.714 6.6827V5.47596H14.4632C14.9455 5.47949 15.4067 5.67416 15.7456 6.01726C16.0845 6.36035 16.2735 6.82387 16.2711 7.30614V11.0377C16.2677 11.0349 16.264 11.0326 16.2605 11.0298C16.2472 11.0191 16.2328 11.0099 16.2193 10.9994C16.14 10.9376 16.0581 10.8796 15.9738 10.8253C15.9434 10.8057 15.9124 10.7872 15.8814 10.7686C15.8074 10.7241 15.7318 10.6825 15.6547 10.6439C15.6247 10.6288 15.5953 10.613 15.5648 10.5988C15.4589 10.5488 15.3505 10.5043 15.24 10.4653C15.2303 10.4619 15.2201 10.4596 15.2102 10.4563C15.1085 10.4219 15.0046 10.3928 14.8993 10.3677C14.864 10.3593 14.8284 10.3524 14.7927 10.345C14.7073 10.3274 14.621 10.313 14.5338 10.3017C14.4983 10.297 14.4631 10.2918 14.4273 10.2882C14.3073 10.2762 14.1863 10.2682 14.0636 10.2682C13.5597 10.2653 13.0609 10.3693 12.6001 10.5733C12.1394 10.7774 11.7271 11.0769 11.3906 11.4519C11.0541 11.827 10.8009 12.2692 10.6479 12.7494C10.4948 13.2295 10.4453 13.7366 10.5027 14.2372C10.5068 14.2757 10.513 14.3136 10.5184 14.3517C10.5314 14.4434 10.5478 14.5343 10.5676 14.6242C10.5763 14.6635 10.5847 14.7027 10.5948 14.7417C10.6213 14.8449 10.6523 14.9467 10.6878 15.0469C10.6947 15.0666 10.6999 15.0868 10.7072 15.1064C10.7513 15.2234 10.8014 15.338 10.8573 15.4497C10.8742 15.4838 10.8932 15.5165 10.9112 15.5499C10.9535 15.6289 10.9983 15.7063 11.0464 15.7819C11.0701 15.8192 11.0941 15.856 11.1192 15.8925C11.1716 15.9686 11.2274 16.0422 11.2857 16.1142C11.3077 16.1415 11.3281 16.1698 11.3509 16.1964C11.3562 16.2025 11.3606 16.2091 11.3658 16.2152L6.43017 16.2152ZM17.0479 13.8522C17.047 14.6434 16.7323 15.402 16.1728 15.9614C15.6134 16.5209 14.8548 16.8355 14.0636 16.8364C13.4333 16.8447 12.8175 16.6468 12.3099 16.2729C11.8 15.9019 11.4205 15.3792 11.2258 14.7795C11.031 14.1798 11.0309 13.5339 11.2255 12.9341C11.4201 12.3344 11.7994 11.8116 12.3092 11.4405C12.819 11.0694 13.4331 10.8691 14.0636 10.8682C14.1782 10.8683 14.2927 10.8749 14.4065 10.888C14.7842 10.929 15.15 11.045 15.4823 11.2291C15.8147 11.4132 16.107 11.6617 16.3422 11.9601C16.7965 12.4859 17.047 13.1573 17.0479 13.8522Z" fill="url(#paint0_linear_222_949)"/>
<path d="M14.3638 13.728V12.6922C14.3638 12.6127 14.3322 12.5364 14.2759 12.4801C14.2196 12.4238 14.1433 12.3922 14.0638 12.3922C13.9842 12.3922 13.9079 12.4238 13.8516 12.4801C13.7954 12.5364 13.7638 12.6127 13.7638 12.6922V13.8523C13.7638 13.9318 13.7954 14.0081 13.8517 14.0644L14.66 14.8727C14.7162 14.9289 14.7925 14.9605 14.8721 14.9605C14.9516 14.9605 15.0279 14.9289 15.0842 14.8727C15.1404 14.8164 15.172 14.7401 15.172 14.6605C15.172 14.581 15.1404 14.5047 15.0842 14.4484L14.3638 13.728Z" fill="url(#paint1_linear_222_949)"/>
<path d="M10.0895 9.40073H6.96559C6.88602 9.40073 6.80972 9.43234 6.75346 9.4886C6.6972 9.54486 6.66559 9.62117 6.66559 9.70073C6.66559 9.7803 6.6972 9.8566 6.75346 9.91287C6.80972 9.96913 6.88602 10.0007 6.96559 10.0007H10.0895C10.1691 10.0007 10.2454 9.96913 10.3016 9.91287C10.3579 9.8566 10.3895 9.7803 10.3895 9.70073C10.3895 9.62117 10.3579 9.54486 10.3016 9.4886C10.2454 9.43234 10.1691 9.40073 10.0895 9.40073Z" fill="url(#paint2_linear_222_949)"/>
<path d="M7.99801 12.0481H6.96559C6.88602 12.0481 6.80972 12.0798 6.75346 12.136C6.6972 12.1923 6.66559 12.2686 6.66559 12.3481C6.66559 12.4277 6.6972 12.504 6.75346 12.5603C6.80972 12.6165 6.88602 12.6481 6.96559 12.6481H7.99801C8.07758 12.6481 8.15388 12.6165 8.21014 12.5603C8.2664 12.504 8.29801 12.4277 8.29801 12.3481C8.29801 12.2686 8.2664 12.1923 8.21014 12.136C8.15388 12.0798 8.07758 12.0481 7.99801 12.0481Z" fill="url(#paint3_linear_222_949)"/>
</g>
<defs>
<filter id="filter0_d_222_949" x="0" y="0" width="21.6479" height="21.4366" filterUnits="userSpaceOnUse" color-interpolation-filters="sRGB">
<feFlood flood-opacity="0" result="BackgroundImageFix"/>
<feColorMatrix in="SourceAlpha" type="matrix" values="0 0 0 0 0 0 0 0 0 0 0 0 0 0 0 0 0 0 127 0" result="hardAlpha"/>
<feOffset/>
<feGaussianBlur stdDeviation="2"/>
<feComposite in2="hardAlpha" operator="out"/>
<feColorMatrix type="matrix" values="0 0 0 0 0 0 0 0 0 0 0 0 0 0 0 0 0 0 0.25 0"/>
<feBlend mode="normal" in2="BackgroundImageFix" result="effect1_dropShadow_222_949"/>
<feBlend mode="normal" in="SourceGraphic" in2="effect1_dropShadow_222_949" result="shape"/>
</filter>
<linearGradient id="paint0_linear_222_949" x1="6.5" y1="6" x2="16" y2="16.5" gradientUnits="userSpaceOnUse">
<stop stop-color="#858B8F"/>
<stop offset="1" stop-color="#383D45"/>
</linearGradient>
<linearGradient id="paint1_linear_222_949" x1="14.0217" y1="12.7745" x2="15.6277" y2="13.7328" gradientUnits="userSpaceOnUse">
<stop stop-color="#858B8F"/>
<stop offset="1" stop-color="#383D45"/>
</linearGradient>
<linearGradient id="paint2_linear_222_949" x1="7.34773" y1="9.49004" x2="7.47128" y2="10.3244" gradientUnits="userSpaceOnUse">
<stop stop-color="#858B8F"/>
<stop offset="1" stop-color="#383D45"/>
</linearGradient>
<linearGradient id="paint3_linear_222_949" x1="6.96461" y1="12.1375" x2="7.22313" y2="12.9028" gradientUnits="userSpaceOnUse">
<stop stop-color="#858B8F"/>
<stop offset="1" stop-color="#383D45"/>
</linearGradient>
</defs>
</svg>
