<svg width="16" height="16" viewBox="0 0 16 16" fill="none" xmlns="http://www.w3.org/2000/svg">
<path d="M0.0196887 12.5325C0.0196887 13.6909 2.39602 14 3.81025 14C5.22449 14 7.60082 13.6909 7.60082 12.5325V5.71822C7.60082 4.55976 5.21707 4.25067 3.80284 4.25067C2.3886 4.25067 0 4.55976 0 5.71822C0 5.73341 0.010471 5.74843 0.0112891 5.76334C0.0105801 5.77366 0.0196887 5.78399 0.0196887 5.79455V12.5325ZM6.83725 10.2383C6.83725 10.3052 6.57459 10.4942 5.96313 10.659C5.36864 10.8192 4.60655 10.9074 3.80769 10.9074C3.00884 10.9074 2.25149 10.8194 1.65721 10.659C1.04576 10.4942 0.837796 10.3052 0.783256 10.2383V8.93095C1.60136 9.32947 2.90155 9.45714 3.81025 9.45714C4.71895 9.45714 6.01914 9.32947 6.83725 8.93095V10.2383ZM6.83725 7.96695C6.83725 8.03378 6.57459 8.22276 5.96313 8.38758C5.36864 8.54776 4.60655 8.63594 3.80769 8.63594C3.00884 8.63594 2.25149 8.54793 1.65721 8.38758C1.04576 8.22259 0.837796 8.0336 0.783256 7.96671V6.65952C1.60136 7.05803 2.90155 7.18571 3.81025 7.18571C4.71895 7.18571 6.01914 7.05803 6.83725 6.65952V7.96695ZM5.96313 12.9304C5.36864 13.0906 4.60655 13.1788 3.80769 13.1788C3.00884 13.1788 2.25149 13.0908 1.65721 12.9304C1.04636 12.7657 0.837796 12.5769 0.783256 12.5099V11.2024C1.60136 11.6009 2.90155 11.7286 3.81025 11.7286C4.71895 11.7286 6.01914 11.6009 6.83725 11.2024V12.5095C6.83725 12.5764 6.57459 12.7654 5.96313 12.9302V12.9304ZM1.65225 5.32076C2.24674 5.16052 3.01375 5.07234 3.81255 5.07234C4.61135 5.07234 5.37857 5.16035 5.97279 5.32076C6.52446 5.46944 6.76466 5.63789 6.8384 5.71845C6.76466 5.79901 6.52446 5.96746 5.97279 6.11614C5.37857 6.27632 4.61135 6.36451 3.81255 6.36451C3.01375 6.36451 2.24647 6.2765 1.65225 6.11614C1.10057 5.96746 0.860376 5.79901 0.786637 5.71845C0.860376 5.63778 1.10057 5.46921 1.65225 5.32053V5.32076Z" fill="#B30038"/>
<path d="M8.36432 12.5325C8.36432 13.6909 10.7679 14 12.1822 14C13.5964 14 16 13.6909 16 12.5325V3.46749C16 2.30909 13.5964 2 12.1822 2C10.7679 2 8.36432 2.30909 8.36432 3.46749V12.5325ZM15.2364 10.2588C15.1819 10.3256 14.9583 10.5147 14.347 10.6795C13.7528 10.8396 12.9827 10.9278 12.1839 10.9278C11.3851 10.9278 10.6119 10.8398 10.0177 10.6795C9.40604 10.5147 9.18243 10.3258 9.12789 10.2588V8.95166C9.94599 9.35017 11.2735 9.47779 12.1822 9.47779C13.0909 9.47779 14.4183 9.35017 15.2364 8.95166V10.2588ZM15.2364 7.98742C15.1819 8.05419 14.9583 8.24323 14.347 8.40805C13.7528 8.56817 12.9827 8.65635 12.1839 8.65635C11.3851 8.65635 10.6119 8.56834 10.0177 8.40805C9.40604 8.24323 9.18243 8.05419 9.12789 7.98742V6.68028C9.94599 7.07879 11.2735 7.20641 12.1822 7.20641C13.0909 7.20641 14.4183 7.07879 15.2364 6.68028V7.98742ZM15.2364 5.71598C15.1819 5.78281 14.9583 5.97186 14.347 6.13661C13.7528 6.29679 12.9827 6.38498 12.1839 6.38498C11.3851 6.38498 10.6119 6.29697 10.0177 6.13661C9.40604 5.97186 9.18243 5.78281 9.12789 5.71598V4.40885C9.94599 4.80736 11.2735 4.93498 12.1822 4.93498C13.0909 4.93498 14.4183 4.80736 15.2364 4.40885V5.71598ZM14.347 12.9301C13.7528 13.0904 12.9827 13.1786 12.1839 13.1786C11.3851 13.1786 10.6119 13.0906 10.0177 12.9301C9.40604 12.7654 9.18243 12.5763 9.12789 12.5095V11.2231C9.94599 11.6216 11.2735 11.7492 12.1822 11.7492C13.0909 11.7492 14.4183 11.6216 15.2364 11.2231V12.5095C15.1819 12.5763 14.9583 12.7654 14.347 12.9301ZM10.0208 3.06974C10.615 2.90944 11.3823 2.82143 12.1811 2.82143C12.9799 2.82143 13.7471 2.90944 14.3414 3.06974C14.893 3.21848 15.1332 3.38693 15.207 3.46749C15.1332 3.54805 14.893 3.7165 14.3414 3.86518C13.7469 4.02542 12.9799 4.11354 12.1811 4.11354C11.3822 4.11354 10.615 4.02553 10.0208 3.86518C9.46915 3.7165 9.22895 3.54805 9.15516 3.46749C9.229 3.38693 9.4692 3.21848 10.0208 3.06974Z" fill="#B30038"/>
</svg>
