<svg width="16" height="16" viewBox="0 0 16 16" fill="none" xmlns="http://www.w3.org/2000/svg">
<g clip-path="url(#clip0_224_1363)">
<path d="M0.0886766 15.9403C0.125611 15.972 0.170788 15.9921 0.218709 15.9981C0.266629 16.0041 0.315225 15.9958 0.358581 15.9741L15.8606 8.22801C15.8615 8.22758 15.8622 8.227 15.8631 8.22652C15.8728 8.22166 15.8821 8.21614 15.891 8.21002C15.8913 8.20984 15.8915 8.20963 15.8918 8.2094C15.9 8.20363 15.9078 8.19734 15.9152 8.19058C15.9173 8.18873 15.9194 8.18695 15.9213 8.18492C15.9281 8.17847 15.9346 8.17161 15.9406 8.16439C15.9413 8.16367 15.942 8.16298 15.9426 8.16221C15.9491 8.15415 15.9552 8.14567 15.9607 8.13683C15.9619 8.13479 15.9631 8.13273 15.9642 8.13066C15.9688 8.12287 15.973 8.11484 15.9768 8.10661C15.9775 8.10512 15.9782 8.10371 15.9789 8.10219C15.9831 8.09236 15.9867 8.08227 15.9897 8.07197C15.9902 8.0703 15.9905 8.0686 15.991 8.06693C15.9933 8.05823 15.9952 8.0494 15.9966 8.04049C15.997 8.0378 15.9974 8.03516 15.9978 8.03244C16.0007 8.01095 16.0007 7.98914 15.9978 7.96766C15.9974 7.96494 15.997 7.96229 15.9966 7.9596C15.9952 7.95069 15.9933 7.94186 15.991 7.93316C15.9905 7.93149 15.9902 7.92979 15.9897 7.92812C15.9867 7.91782 15.9831 7.90773 15.9789 7.89791C15.9782 7.89638 15.9775 7.89497 15.9768 7.89348C15.973 7.88525 15.9688 7.87722 15.9642 7.86943C15.963 7.86737 15.9618 7.8653 15.9607 7.86327C15.9552 7.85443 15.9491 7.84595 15.9426 7.83788C15.942 7.83712 15.9413 7.83643 15.9406 7.8357C15.9346 7.82848 15.9281 7.82163 15.9213 7.81517C15.9194 7.81325 15.9173 7.81154 15.9152 7.80951C15.9078 7.80275 15.9 7.79646 15.8918 7.79069C15.8915 7.79046 15.8913 7.79026 15.891 7.79007C15.8821 7.78395 15.8728 7.77844 15.8631 7.77357C15.8622 7.7731 15.8615 7.77252 15.8606 7.77208L0.358581 0.0259166C0.315225 0.00424518 0.266624 -0.00410389 0.218698 0.00188602C0.170772 0.00787593 0.125588 0.0279464 0.0886476 0.0596535C0.0517073 0.0913606 0.0246048 0.133336 0.0106404 0.180469C-0.00332407 0.227602 -0.0035479 0.277858 0.00999611 0.325118L2.20953 8.00001L0.0100317 15.675C-0.00348414 15.7223 -0.00324648 15.7725 0.0107158 15.8196C0.0246781 15.8667 0.0517633 15.9086 0.0886766 15.9403ZM0.646377 0.735201L14.6771 7.74611H9.49577C9.43555 7.02935 9.11378 6.36173 8.59409 5.87524C8.07439 5.38875 7.3946 5.11882 6.68913 5.11882C5.98366 5.11882 5.30386 5.38875 4.78417 5.87524C4.26447 6.36173 3.9427 7.02935 3.88249 7.74611H2.65558L0.646377 0.735201ZM8.99601 7.99925C8.99611 8.62453 8.75261 9.22425 8.31909 9.66646C7.88557 10.1087 7.29753 10.3572 6.68434 10.3573C6.07115 10.3574 5.48304 10.1091 5.04937 9.667C4.61571 9.22493 4.37203 8.62529 4.37193 8.00001V7.99203C4.37193 7.36675 4.61552 6.76707 5.04911 6.32493C5.4827 5.88279 6.07078 5.6344 6.68397 5.6344C7.29716 5.6344 7.88524 5.88279 8.31883 6.32493C8.75242 6.76707 8.99601 7.36675 8.99601 7.99203V7.99925ZM2.65558 8.25391H3.88377C3.94803 8.9673 4.27137 9.63047 4.79036 10.1133C5.30936 10.5962 5.98655 10.8638 6.68909 10.8638C7.39163 10.8638 8.06882 10.5962 8.58782 10.1133C9.10681 9.63047 9.43016 8.9673 9.49442 8.25391H14.6769L0.646377 15.2648L2.65558 8.25391Z" fill="#B30038"/>
<path d="M7.71552 6.91191C7.78156 6.91191 7.84489 6.88516 7.89158 6.83755C7.93828 6.78993 7.96451 6.72535 7.96451 6.65801C7.96451 6.59067 7.93828 6.52609 7.89158 6.47848C7.84489 6.43086 7.78156 6.40411 7.71552 6.40411H5.65247C5.58643 6.40411 5.5231 6.43086 5.47641 6.47848C5.42971 6.52609 5.40348 6.59067 5.40348 6.65801C5.40348 6.72535 5.42971 6.78993 5.47641 6.83755C5.5231 6.88516 5.58643 6.91191 5.65247 6.91191H6.385C6.64544 6.91191 6.86949 7.09327 6.96656 7.3109H5.65247C5.58643 7.3109 5.5231 7.33765 5.47641 7.38526C5.42971 7.43288 5.40348 7.49746 5.40348 7.56479C5.40348 7.63213 5.42971 7.69671 5.47641 7.74433C5.5231 7.79194 5.58643 7.81869 5.65247 7.81869H6.96717C6.92269 7.93856 6.84277 8.04135 6.73846 8.11283C6.63416 8.18432 6.51063 8.22096 6.385 8.21768H5.65247C5.60177 8.21762 5.55226 8.23336 5.51057 8.2628C5.46889 8.29224 5.43703 8.33396 5.41925 8.38238C5.40148 8.43081 5.39865 8.48361 5.41113 8.53372C5.42361 8.58384 5.45082 8.62886 5.4891 8.66276L6.86448 9.88227C6.91454 9.92447 6.97878 9.94505 7.04351 9.93962C7.10824 9.93419 7.16833 9.90319 7.21096 9.85322C7.25359 9.80325 7.27538 9.73828 7.27169 9.67216C7.26801 9.60604 7.23913 9.544 7.19122 9.49929L6.31827 8.72548H6.385C6.92331 8.72548 7.37466 8.32649 7.48823 7.81869H7.71552C7.78156 7.81869 7.84489 7.79194 7.89158 7.74433C7.93828 7.69671 7.96451 7.63213 7.96451 7.56479C7.96451 7.49746 7.93828 7.43288 7.89158 7.38526C7.84489 7.33765 7.78156 7.3109 7.71552 7.3109H7.48787C7.45636 7.16581 7.39941 7.057 7.32173 6.91191H7.71552Z" fill="#B30038"/>
</g>
<defs>
<clipPath id="clip0_224_1363">
<rect width="16" height="16" fill="white"/>
</clipPath>
</defs>
</svg>
