<svg width="26" height="26" viewBox="0 0 26 26" fill="none" xmlns="http://www.w3.org/2000/svg">
<path fill-rule="evenodd" clip-rule="evenodd" d="M15.6418 5.00001H3.58576C2.16564 5.00001 1 6.21165 1 7.69028V18.3097C1 19.7873 2.16457 21 3.58576 21H15.6418C17.062 21 18.2276 19.7884 18.2276 18.3097V7.69028C18.2276 6.21165 17.063 5.00001 15.6418 5.00001ZM15.058 6.85475C15.406 6.85475 15.7218 7.00175 15.9504 7.23953L15.9494 7.24061C16.4439 7.75511 16.4439 8.57978 15.9494 9.09536L15.9504 9.09644C14.7754 10.3189 12.9906 8.46523 14.1667 7.24061C14.3952 7.00174 14.712 6.85475 15.058 6.85475ZM19.7589 10.3957V15.6043L24.2894 19.0511C24.5761 19.2695 24.999 19.0749 24.999 18.675L25 7.32392C25 6.92293 24.5772 6.72946 24.2904 6.94778L19.7589 10.3957Z" fill="#EFCE83"/>
</svg>
